<?xml version="1.0" standalone="no"?>
<!DOCTYPE svg PUBLIC "-//W3C//DTD SVG 1.1//EN" "http://www.w3.org/Graphics/SVG/1.1/DTD/svg11.dtd" >
<svg xmlns="http://www.w3.org/2000/svg" xmlns:xlink="http://www.w3.org/1999/xlink" version="1.1">
<metadata>
Created by FontForge 20160407 at Mon Sep 26 10:52:05 2016
 By Jimmy Warting
</metadata>
<defs>
<font id="JakobC-Bold" horiz-adv-x="618" >
  <font-face 
    font-family="JakobC"
    font-weight="700"
    font-stretch="normal"
    units-per-em="1000"
    panose-1="2 0 8 3 0 0 0 0 0 0"
    ascent="800"
    descent="-200"
    x-height="497"
    cap-height="837"
    bbox="-285 -482 1083 1110"
    underline-thickness="50"
    underline-position="-100"
    stemh="0"
    unicode-range="U+0020-2122"
  />
    <missing-glyph />
    <glyph glyph-name="space" unicode=" " horiz-adv-x="233" 
 />
    <glyph glyph-name="exclam" unicode="!" horiz-adv-x="226" 
d="M70 652l8 78c9 90 103 70 103 4c0 -16 -8 -23 -13 -102c-2 -29 -2 -42 -3 -71c0 -11 -1 -22 -1 -33c-1 -22 -1 -44 -2 -66c-1 -30 -2 -60 -7 -89c-4 -22 -10 -43 -10 -65c0 -17 5 -29 8 -38c7 -17 14 -28 14 -44s-4 -25 -22 -25c-46 0 -101 31 -101 120
c0 18 -1 67 26 331zM186 46c0 -39 -57 -88 -93 -88c-28 0 -53 32 -53 56c0 32 65 86 99 86s47 -33 47 -54z" />
    <glyph glyph-name="quotedbl" unicode="&#x22;" horiz-adv-x="402" 
d="M230 798c-10 7 -30 19 -30 42c0 20 21 42 41 42c39 0 121 -64 121 -156c0 -38 -20 -136 -52 -136c-10 0 -24 5 -24 25c0 24 10 12 10 70c0 54 -37 92 -66 113zM198 588c-8 -15 -27 -39 -42 -39c-10 0 -23 9 -23 31c0 10 3 19 3 28c0 140 -96 127 -96 204
c0 24 23 52 53 52c71 0 121 -140 121 -219c0 -20 -7 -40 -16 -57z" />
    <glyph glyph-name="numbersign" unicode="#" horiz-adv-x="761" 
d="M238 498l48 27c10 41 22 94 31 166c22 81 103 54 102 9c-5 -56 -15 -97 -20 -117c44 8 73 24 89 34c9 37 19 76 31 117c4 30 24 40 39 40c33 0 70 -55 36 -115c16 0 32 1 58 9c12 3 29 11 60 11c18 0 34 -8 34 -15c0 -8 -21 -15 -51 -29l-48 -23c-16 -8 -29 -15 -61 -28
l-12 -59c-16 -77 -19 -92 -13 -105c17 14 59 27 83 33c15 7 30 11 43 -5c12 -14 -4 -20 -23 -25c-7 -2 -24 -9 -118 -64c-28 -88 -63 -246 -73 -302c1 -13 -4 -68 -21 -68c-9 0 -38 8 -38 77c0 39 3 114 31 248c-33 -10 -77 -36 -102 -62c-9 -52 -11 -113 2 -183
c8 -35 -24 -68 -53 -32c-11 12 -48 58 -43 176c-25 -9 -178 -75 -192 -90c-45 -16 -32 41 -4 59c57 35 99 53 133 70l63 31c4 49 10 101 20 156c-99 -40 -95 -66 -168 -80c-29 -5 -58 35 -9 61c76 37 109 57 146 78zM353 325c32 16 66 33 102 52c10 73 7 38 25 160
c-30 -13 -61 -29 -94 -46c-21 -51 -32 -106 -33 -166z" />
    <glyph glyph-name="dollar" unicode="$" horiz-adv-x="598" 
d="M221 700v7c0 137 18 198 50 198c42 0 29 -31 29 -47c0 -25 -5 -29 -5 -87v-39c53 21 86 30 114 30c38 0 50 -20 50 -32c0 -16 -10 -40 -57 -49l-48 -9c-19 -4 -31 -3 -57 -17c-4 -50 -1 -36 -4 -101c65 4 90 8 118 8c88 0 162 -20 162 -97c0 -102 -182 -291 -301 -382
c-16 -145 -20 -231 -44 -231c-33 0 -30 63 -30 99c0 35 4 85 5 104c-47 -23 -70 -32 -96 -43c-38 -16 -58 -27 -78 -27c-27 0 -34 17 -34 27c0 48 128 95 162 112l51 26c12 170 0 33 17 314c-147 -9 -161 67 -161 84c0 15 10 54 124 130zM225 610l-5 -4
c-6 -5 -42 -35 -42 -42c0 -2 9 -9 45 -12c1 21 2 40 2 58zM295 470l-16 -270c52 44 203 205 203 251c0 32 -30 32 -47 32c-38 0 -29 2 -140 -13z" />
    <glyph glyph-name="percent" unicode="%" horiz-adv-x="816" 
d="M447 744c0 -70 -85 -185 -168 -185c-79 0 -101 59 -101 93c0 20 42 80 86 114c-13 36 52 76 91 76c40 0 92 -38 92 -98zM773 857c-17 -34 -42 -67 -222 -326c-328 -470 -336 -496 -363 -561c-11 -26 -84 -175 -84 -144c0 17 -20 94 288 591c286 458 323 489 351 489
c15 0 38 0 38 -11s-1 -25 -8 -38zM744 206c0 -55 -58 -153 -153 -153c-79 0 -106 56 -106 113c0 82 74 160 124 160c38 0 135 -59 135 -120zM327 710c-17 -17 -46 -42 -46 -67c0 -5 0 -15 4 -15c47 0 109 84 109 99c0 21 -28 54 -43 54c-9 0 -27 -12 -27 -18
c0 -13 12 -3 12 -37c0 -7 -6 -13 -9 -16zM682 206c0 30 -48 36 -59 36c-24 0 -51 -40 -52 -84c0 -17 20 -50 39 -50c37 0 72 70 72 98z" />
    <glyph glyph-name="ampersand" unicode="&#x26;" horiz-adv-x="753" 
d="M455 259l21 8c176 67 148 47 198 64c14 5 59 23 59 -6c0 -11 -5 -24 -244 -118c51 -87 106 -149 106 -185c0 -14 -21 -20 -36 -23c-6 -1 -13 -2 -18 0c-18 8 8 13 -119 176l-87 -51c-16 -9 -31 -19 -47 -28c-19 -11 -17 -9 -54 -30c-81 -46 -93 -72 -114 -72
s-60 33 -60 71c0 54 29 47 57 68c54 41 40 97 185 250c-31 37 -116 146 -116 193c0 67 108 157 206 157c105 0 171 -59 171 -103c0 -70 -82 -164 -172 -245l-10 -9l16 -25c16 -25 27 -36 58 -92zM316 476l31 -44c52 45 144 133 144 183c0 29 -34 62 -94 62
c-81 0 -142 -60 -142 -97c0 -31 48 -86 61 -104zM393 229l-23 39c-11 18 -15 30 -34 52c-64 -86 -104 -151 -129 -193c151 82 194 88 186 102z" />
    <glyph glyph-name="quotesingle" unicode="'" horiz-adv-x="181" 
d="M75 621c-7 31 -16 61 -25 92c-6 19 -10 36 -10 52c0 35 27 54 44 54c22 0 57 -15 57 -134c0 -36 -7 -120 -33 -120c-23 0 -30 40 -33 56z" />
    <glyph glyph-name="parenleft" unicode="(" horiz-adv-x="424" 
d="M327 121l23 -15c20 -13 43 -29 43 -59c0 -32 -18 -43 -47 -43c-116 0 -311 174 -311 373c0 134 110 305 209 385l31 25c6 5 67 54 101 54c19 0 38 -14 38 -28c0 -19 -32 -35 -49 -48l-30 -22c-127 -93 -175 -248 -175 -353c0 -160 120 -239 167 -269z" />
    <glyph glyph-name="parenright" unicode=")" horiz-adv-x="424" 
d="M97 724l-23 15c-20 13 -43 29 -43 59c0 32 18 43 47 43c116 0 311 -174 311 -373c0 -134 -110 -305 -209 -385l-31 -25c-6 -5 -67 -54 -101 -54c-19 0 -38 14 -38 28c0 19 32 35 49 48l30 22c127 93 175 248 175 353c0 160 -120 239 -167 269z" />
    <glyph glyph-name="asterisk" unicode="*" horiz-adv-x="413" 
d="M276 572c25 -17 70 -72 70 -97c0 -31 -53 -23 -77 -8c7 -25 -2 -46 -14 -46c-20 0 -66 13 -58 95c-20 -59 -62 -109 -78 -109c-7 0 -10 16 -10 28c0 39 15 76 36 101c-57 -42 -125 -15 -125 5c0 17 70 42 117 49c-39 26 -55 70 -33 96c10 12 40 34 72 -4
c-13 36 14 61 36 61c11 0 49 -2 41 -56c14 20 45 44 69 44c13 0 17 -6 17 -19c0 -20 -22 -63 -34 -81c43 17 88 4 88 -14c0 -10 -13 -30 -117 -45z" />
    <glyph glyph-name="plus" unicode="+" horiz-adv-x="552" 
d="M334 376l43 16c28 10 54 23 90 32l23 6c41 11 47 -8 47 -18c0 -15 -17 -22 -29 -28l-14 -7c-42 -21 -115 -55 -156 -73c-6 -25 -7 -39 -8 -62l-4 -64c-3 -53 -29 -61 -47 -61c-47 0 -58 82 -61 129l-44 -20c-76 -34 -97 -37 -105 -37c-18 0 -29 13 -29 26
c0 22 20 33 30 38l53 26c18 9 70 38 95 52l5 41c9 76 16 191 69 191c13 0 44 -10 44 -52c0 -27 -2 -37 -2 -85v-50z" />
    <glyph glyph-name="comma" unicode="," horiz-adv-x="141" 
d="M35 -91l2 10c7 36 8 51 8 61c0 20 -7 32 -11 41c-7 11 -14 25 -14 41c0 29 28 43 49 43c13 0 52 -11 52 -86c0 -69 -18 -108 -44 -158l-13 -25c-4 -7 -13 -25 -24 -25c-5 0 -17 2 -17 21c0 13 2 29 12 77z" />
    <glyph glyph-name="hyphenminus" unicode="-" horiz-adv-x="492" 
d="M191 386l34 9c30 8 98 22 133 22c32 0 97 -9 97 -35c0 -38 -54 -41 -91 -51l-34 -9c-20 -5 -40 -13 -59 -21c-20 -9 -39 -18 -60 -23l-49 -11c-114 -26 -125 16 -125 36c0 50 106 70 154 83z" />
    <glyph glyph-name="period" unicode="." horiz-adv-x="164" 
d="M143 74c7 -26 -20 -74 -64 -74c-25 0 -59 24 -59 50c0 33 53 58 79 58c28 0 41 -23 44 -34z" />
    <glyph glyph-name="slash" unicode="/" horiz-adv-x="547" 
d="M523 816c-44 -96 -59 -105 -144 -283c-44 -90 -57 -122 -132 -281c-88 -186 -101 -216 -145 -301c-9 -18 -87 -140 -87 -122c0 11 3 82 49 149c141 318 294 676 394 920c5 13 17 33 51 33s42 -26 42 -37c0 -15 -6 -31 -28 -78z" />
    <glyph glyph-name="zero" unicode="0" horiz-adv-x="670" 
d="M258 633l-7 -7c-79 -79 -97 -164 -97 -228c0 -142 97 -276 196 -276c102 0 180 147 180 333c0 74 -35 162 -102 197c-22 11 -70 26 -70 48c0 10 15 24 44 24c92 0 233 -96 233 -276c0 -276 -163 -440 -317 -440c-128 0 -283 129 -283 338c0 162 112 353 190 353
c21 0 53 -17 53 -36c0 -12 -13 -23 -20 -30z" />
    <glyph glyph-name="one" unicode="1" horiz-adv-x="430" 
d="M229 35l-1 59c-4 207 -8 327 -17 476c-36 -41 -18 -24 -92 -115l-27 -33c-8 -10 -24 -20 -35 -20c-18 0 -28 18 -28 34c0 19 13 29 25 42l53 55c26 27 86 94 93 112c8 20 18 79 69 79c55 0 47 -53 47 -73v-49c0 -129 36 -398 44 -456l7 -51c14 -100 -77 -115 -102 -115
c-35 0 -36 36 -36 55z" />
    <glyph glyph-name="two" unicode="2" horiz-adv-x="486" 
d="M201 148l128 59c40 19 100 43 155 71l62 31c9 4 23 10 30 10c12 0 26 -7 26 -23c0 -12 -7 -18 -16 -24l-18 -12c-62 -42 -148 -94 -270 -159l-190 -101c-44 -24 -102 10 -66 83l61 123c40 80 189 390 189 451c0 24 -19 27 -34 27c-36 0 -84 -62 -106 -86
c-23 -24 -31 -32 -40 -32c-13 0 -30 10 -30 24c0 44 119 164 218 164c57 0 93 -38 93 -89c0 -48 -24 -98 -145 -400z" />
    <glyph glyph-name="three" unicode="3" horiz-adv-x="582" 
d="M146 535l-45 -31c-34 -23 -69 -8 -69 24c0 43 82 65 221 130c66 31 96 71 124 71c19 0 53 -19 53 -41c0 -26 -57 -104 -145 -250c44 30 97 47 142 47c93 0 140 -68 140 -159c0 -162 -136 -327 -342 -327c-128 0 -199 68 -199 100c0 11 12 22 26 22c18 0 26 -14 71 -30
c29 -11 51 -17 85 -17c150 0 243 104 243 215c0 72 -29 96 -67 96c-37 0 -116 -36 -147 -52c-40 -20 -55 -34 -70 -34c-16 0 -35 17 -35 35c0 14 6 25 13 36l44 72c24 39 49 68 97 175c-69 -30 -106 -59 -140 -82z" />
    <glyph glyph-name="four" unicode="4" horiz-adv-x="481" 
d="M251 388l3 156c1 27 14 58 46 58c58 0 44 -102 47 -164c63 37 101 54 155 79l39 18c20 9 30 4 30 -9c0 -10 -22 -25 -31 -32l-45 -33c-53 -39 -93 -69 -141 -104c24 -205 34 -236 34 -288c0 -16 0 -72 -50 -72c-85 0 -81 99 -80 185v38c0 14 -1 26 -2 74
c-85 -55 -144 -100 -169 -100c-33 0 -25 45 -25 54c0 47 12 70 13 121v61c0 24 -1 47 0 71c7 201 38 228 65 228c38 0 44 -31 40 -51l-11 -57c-5 -28 -12 -98 -12 -120c0 -58 12 -72 17 -164c33 14 42 26 63 41z" />
    <glyph glyph-name="five" unicode="5" horiz-adv-x="456" 
d="M262 690l116 42c9 3 38 12 48 12c27 0 30 -40 10 -48l-22 -9c-40 -16 -195 -84 -282 -125c-1 -34 0 -55 1 -79l2 -50c85 42 130 59 173 59c59 0 134 -40 134 -183c0 -185 -133 -310 -287 -310c-72 0 -96 26 -96 43c0 10 5 24 23 24c16 0 39 -11 74 -11
c106 0 181 130 181 250c0 93 -53 95 -71 95c-35 0 -76 -23 -140 -58l-22 -12c-16 -8 -27 -17 -38 -17c-23 0 -23 31 -23 42v48c0 27 0 53 -3 74c-4 40 -16 51 -16 77c0 40 26 61 70 78l26 10c107 41 52 15 142 48z" />
    <glyph glyph-name="six" unicode="6" horiz-adv-x="514" 
d="M353 628l-25 -16c-77 -49 -157 -182 -175 -289c51 22 128 52 185 52c99 0 164 -46 164 -136c0 -116 -86 -244 -246 -244c-128 0 -215 82 -215 213c0 235 207 490 293 490c31 0 46 -28 46 -45c0 -13 -10 -14 -27 -25zM150 288c-6 -67 10 -200 142 -200
c106 0 137 87 137 135c0 45 -37 91 -128 91c-33 0 -50 -8 -75 -15c-24 -7 -46 -11 -76 -11z" />
    <glyph glyph-name="seven" unicode="7" horiz-adv-x="519" 
d="M361 606l3 8c-226 -83 -284 -138 -324 -138c-23 0 -30 14 -30 24c0 51 200 120 274 138c84 21 106 26 131 62c2 3 14 25 39 25c31 0 48 -17 48 -31c0 -58 -47 -63 -110 -259c21 2 38 8 52 8c8 0 16 -2 24 -2c12 0 23 6 35 6c9 0 14 -6 14 -12c0 -5 -4 -10 -14 -14
c-13 -5 -14 1 -43 -15l-22 -12c-17 -9 -42 -20 -62 -27c-19 -54 -56 -177 -66 -233l-13 -70c-6 -33 -58 -65 -93 -65c-34 0 -27 36 -24 48l11 47c9 39 20 71 42 145l25 84l-30 -16c-40 -22 -65 -57 -96 -57c-20 0 -28 16 -28 29c0 42 110 87 176 120c29 70 48 118 81 207z
" />
    <glyph glyph-name="eight" unicode="8" horiz-adv-x="431" 
d="M289 407l-8 -9c81 -94 130 -169 130 -242c0 -95 -114 -161 -227 -161c-122 0 -164 74 -164 129c0 85 72 161 145 241l-15 23c-11 17 -39 66 -39 129c0 112 75 173 157 173c56 0 115 -32 115 -110c0 -73 -50 -123 -94 -173zM256 445c26 28 57 77 57 125s-29 56 -45 56
c-34 0 -63 -13 -63 -56c0 -36 33 -100 51 -125zM218 296l-19 24c-23 -27 -105 -137 -105 -179c0 -26 35 -61 104 -61c49 0 105 26 105 61c0 23 -7 56 -85 155z" />
    <glyph glyph-name="nine" unicode="9" horiz-adv-x="497" 
d="M354 402l-50 -10c-22 -4 -68 -13 -122 -13c-126 0 -167 86 -167 153c0 72 70 119 104 151c26 24 50 23 61 16l18 -11c11 -7 14 -8 30 -2c18 8 20 12 45 12c153 0 198 -67 198 -142c0 -29 -10 -77 -12 -125l-2 -42c-6 -119 -15 -178 -224 -387l-16 -16
c-19 -19 -41 -42 -63 -27c-6 4 -11 13 2 30l10 13c143 186 182 282 188 400zM374 564c0 42 -52 69 -92 69c-21 0 -51 -4 -67 -19c-11 -10 -9 -14 -24 -14c-5 0 -10 1 -15 1c-40 0 -66 -20 -66 -59c0 -34 26 -75 123 -75c92 0 141 16 141 97z" />
    <glyph glyph-name="colon" unicode=":" horiz-adv-x="188" 
d="M134 421v-8c0 -49 -4 -88 -47 -88c-51 0 -67 56 -67 79c0 43 37 99 72 99c39 0 42 -41 42 -82zM168 87c0 -35 -17 -87 -60 -87c-21 0 -70 9 -70 60c0 61 48 93 81 93c14 0 49 -9 49 -66z" />
    <glyph glyph-name="semicolon" unicode=";" horiz-adv-x="225" 
d="M195 350c0 -46 -37 -68 -68 -68c-53 0 -55 55 -55 69c0 20 37 66 77 66c27 0 46 -41 46 -67zM73 84l1 28c1 40 37 74 64 74c20 0 42 -22 42 -69c0 -71 -46 -130 -77 -176l-59 -87c-7 -10 -25 -34 -38 -34c-5 0 -17 5 -8 27l13 31c62 147 60 139 62 206z" />
    <glyph glyph-name="less" unicode="&#x3c;" horiz-adv-x="444" 
d="M359 204l31 -22c37 -31 12 -63 -1 -63c-5 0 -40 -21 -211 97c-101 72 -134 108 -138 136c-1 4 -1 7 0 11c5 35 78 96 143 168c81 93 114 153 157 153c26 0 38 -27 38 -39c0 -33 -137 -192 -184 -243c-18 -18 -13 -48 2 -68c74 -74 123 -102 163 -130z" />
    <glyph glyph-name="equal" unicode="=" horiz-adv-x="693" 
d="M493 502l-54 -20c-67 -23 -105 -43 -148 -64c-65 -32 -112 -51 -156 -66c-38 -11 -77 5 -77 42c0 17 6 46 43 58c107 56 96 25 222 88c63 26 206 68 280 68c26 0 51 -5 68 -32c20 -31 -5 -33 -48 -38l-34 -4c-24 -3 -46 -14 -96 -32zM623 404c-76 -37 -45 -1 -254 -110
c-206 -106 -256 -116 -282 -120c-55 2 -68 63 -20 96c44 32 91 26 248 100c61 28 229 98 296 98c22 0 54 1 54 -16c0 -24 -22 -38 -42 -48z" />
    <glyph glyph-name="greater" unicode="&#x3e;" horiz-adv-x="433" 
d="M233 412l-32 21c-127 83 -154 113 -164 129c-1 3 -2 11 -2 18c0 24 35 66 90 40c42 -9 60 -48 232 -166c27 -20 36 -52 36 -78c0 -23 -23 -40 -41 -59l-27 -28c-39 -41 -81 -86 -95 -102c-18 -20 -26 -30 -32 -36l-9 -9c-23 -33 -47 -61 -56 -29c-7 25 2 42 16 57
c50 82 76 121 106 162c24 30 8 64 -22 80z" />
    <glyph glyph-name="question" unicode="?" horiz-adv-x="557" 
d="M470 386l52 31c14 8 17 -8 17 -33c0 -87 -360 -214 -413 -214c-56 0 -65 35 -65 58c0 44 49 87 127 178l147 172c55 65 84 95 -2 95c-43 0 -115 -45 -145 -64l-48 -30c-28 -17 -54 -36 -69 -36c-13 0 -31 14 -31 28c0 46 277 184 383 184c45 0 48 -44 48 -65
c0 -50 -77 -158 -129 -219l-78 -91c-43 -50 -67 -70 -93 -119c55 12 152 38 299 125zM301 63c0 -12 -28 -81 -49 -81c-12 0 -61 45 -61 84c0 14 22 66 49 66c39 0 61 -43 61 -69z" />
    <glyph glyph-name="at" unicode="@" horiz-adv-x="670" 
d="M603 338v-164c33 2 48 -21 48 -38c0 -56 -242 -132 -316 -132c-66 0 -143 31 -143 110c0 109 162 260 315 195v66c0 43 -33 57 -73 57c-123 0 -303 -113 -303 -287c0 -57 14 -215 247 -215c120 0 159 61 211 61c46 0 63 -27 63 -51c0 -57 -115 -105 -276 -105
c-278 0 -354 155 -354 291c0 234 206 389 426 389c155 0 155 -107 155 -177zM500 130v20c0 48 1 93 -73 93c-67 0 -136 -60 -136 -108c0 -22 16 -50 53 -50c32 0 100 12 156 45z" />
    <glyph glyph-name="A" unicode="A" 
d="M635 558l97 41c21 9 59 27 59 -5c0 -26 -54 -47 -103 -73l-186 -100l33 -107c65 -212 75 -234 75 -261c0 -39 -30 -59 -62 -59c-79 0 -95 175 -123 270l-30 103c-112 -66 -144 -83 -188 -110l-63 -38c-10 -28 -23 -74 -27 -103l-4 -29c-3 -21 -14 -78 -72 -78
c-17 0 -42 15 -42 68c0 18 6 51 99 317l93 265c27 76 53 186 117 186s90 -120 140 -259l34 -95c105 44 116 51 153 67zM171 319l203 119l-40 131c-8 27 -29 83 -44 83c-22 0 -45 -84 -62 -142z" />
    <glyph glyph-name="B" unicode="B" horiz-adv-x="607" 
d="M109 41l-1 595c-106 -62 -121 -66 -129 -66c-21 0 -38 15 -38 39c0 90 428 236 483 236c64 0 78 -51 78 -75c0 -85 -95 -191 -149 -249c30 11 75 23 105 23c76 0 126 -49 126 -128c0 -153 -317 -469 -419 -469c-52 0 -56 49 -56 94zM203 684l2 -214
c61 56 198 209 198 256c0 17 -9 24 -26 24c-14 0 -43 -5 -174 -66zM204 342l-3 -279c98 72 280 215 280 338c0 36 -17 40 -49 40c-87 0 -174 -56 -228 -99z" />
    <glyph glyph-name="C" unicode="C" 
d="M637 244c-18 -76 -124 -236 -312 -236c-199 0 -284 166 -284 341c0 260 191 465 385 465c80 0 150 -29 150 -68c0 -14 -5 -36 -28 -36c-46 0 -40 12 -106 12c-150 0 -277 -132 -277 -328c0 -243 161 -270 213 -270c111 0 181 88 205 115c16 17 21 31 34 31
c10 0 21 -6 21 -17c0 -3 0 -6 -1 -9z" />
    <glyph glyph-name="D" unicode="D" horiz-adv-x="620" 
d="M141 -4l30 36c-3 187 -8 301 -8 431c0 65 1 149 3 221c-125 -71 -167 -159 -204 -159c-10 0 -25 9 -25 35c0 41 42 73 71 97l35 29c121 101 234 140 321 140c142 0 235 -91 235 -254c0 -132 -48 -289 -250 -487l-129 -126c-14 -13 -29 -32 -56 -32s-36 23 -36 40
c0 7 3 17 13 29zM263 299l5 -177c208 201 232 337 232 444c0 222 -170 195 -243 157c-1 -190 2 -295 6 -424z" />
    <glyph glyph-name="E" unicode="E" horiz-adv-x="537" 
d="M165 283v-184c58 41 192 130 255 163l102 53c49 26 65 2 65 -13s-8 -24 -16 -29l-31 -20c-31 -20 -81 -55 -257 -180l-112 -80c-29 -20 -54 -37 -78 -37c-40 0 -39 42 -38 62l6 179c3 100 4 155 12 337l8 184c2 35 27 46 46 46c13 0 46 -6 46 -56c95 48 172 76 244 102
l62 22c15 5 69 23 69 -18c0 -26 -22 -32 -39 -39l-37 -16c-84 -37 -187 -75 -303 -156c-3 -47 -7 -114 -6 -214c57 39 106 71 287 176l45 26c33 19 53 7 53 -18c0 -19 -14 -31 -22 -37l-21 -16c-14 -10 -33 -24 -340 -237z" />
    <glyph glyph-name="F" unicode="F" horiz-adv-x="468" 
d="M551 820l-103 -52c-81 -41 -144 -70 -235 -123c-2 -77 -8 -150 -12 -193c86 60 248 163 379 163c9 0 30 1 30 -15c0 -23 -28 -38 -41 -44l-86 -39c-101 -46 -205 -109 -285 -167c-7 -84 -11 -212 3 -298l3 -19c10 -63 -43 -86 -74 -86c-48 0 -88 68 -57 321
c-47 22 -32 66 2 88c12 96 15 173 16 213l1 45c2 83 -7 166 57 166c21 0 45 -15 56 -38c65 20 156 51 270 102l60 27c40 18 51 0 51 -13c0 -20 -21 -31 -35 -38z" />
    <glyph glyph-name="G" unicode="G" horiz-adv-x="574" 
d="M265 415l21 15c74 53 237 126 318 126c23 0 29 -11 29 -17c0 -33 -67 -56 -98 -70l-38 -17c-11 -153 -16 -231 -16 -294c0 -39 2 -66 17 -86c8 -13 16 -15 16 -32c0 -37 -64 -68 -91 -68c-26 0 -50 17 -50 81v30c-147 -27 -338 54 -338 291c0 294 187 458 331 458
c53 0 64 -33 64 -55c0 -29 -20 -39 -36 -39c-6 0 -13 2 -19 3c-10 2 -19 3 -29 3c-127 0 -206 -185 -206 -321c0 -145 90 -256 241 -250c7 106 9 135 15 228c-71 -36 -105 -91 -137 -91c-23 0 -46 27 -46 45c0 24 31 45 52 60z" />
    <glyph glyph-name="H" unicode="H" horiz-adv-x="632" 
d="M177 406l101 45c55 25 97 35 170 85c0 232 21 284 71 284c38 0 52 -20 52 -53c0 -24 -6 -46 -10 -68c-4 -23 -4 -47 -6 -71l-4 -44c25 6 47 -9 47 -25c0 -14 -17 -35 -37 -43c9 -206 9 -199 13 -260c6 -110 7 -126 7 -140c0 -84 -43 -96 -66 -96c-24 0 -64 17 -65 106
l-2 204c0 40 6 56 -1 114c-63 -20 -197 -99 -260 -142c-12 -53 16 -50 16 -233c0 -17 0 -73 -68 -73c-40 0 -52 24 -52 67c0 13 2 26 2 38c0 100 -20 86 -20 301c0 115 -23 350 83 350c21 0 43 -17 43 -69c0 -177 -13 -43 -14 -277z" />
    <glyph glyph-name="I" unicode="I" horiz-adv-x="266" 
d="M88 618l2 46c4 81 50 91 65 91c26 0 60 -15 60 -60c0 -92 -48 -483 -19 -606l4 -17c15 -63 -29 -91 -66 -91c-62 0 -68 70 -68 151c0 113 9 193 22 486z" />
    <glyph glyph-name="J" unicode="J" horiz-adv-x="472" 
d="M93 96l23 -9c18 -7 50 -11 72 -11c120 0 136 78 136 156c0 47 -3 91 -8 137c-6 61 -10 99 -10 140c0 49 8 117 21 174c-46 -8 -89 -24 -130 -48l-85 -50c-26 -15 -39 -17 -44 -17c-19 0 -39 10 -39 38c0 64 79 80 185 129c28 13 180 80 223 80c11 0 46 0 46 -37
c0 -20 -17 -47 -38 -92c-38 -81 -39 -151 -39 -227c0 -26 2 -101 3 -123c3 -82 6 -71 6 -106c0 -187 -136 -232 -219 -232c-69 0 -173 35 -173 83c0 41 57 20 70 15z" />
    <glyph glyph-name="K" unicode="K" horiz-adv-x="603" 
d="M202 740l3 -272c93 97 115 137 225 281l42 55c29 38 84 27 84 -14c0 -76 -223 -319 -280 -374c149 -60 384 -274 384 -389c0 -36 -27 -45 -46 -45c-36 0 -54 45 -88 84l-62 72c-109 127 -208 164 -254 178c3 -71 3 -143 7 -213c1 -12 1 -23 1 -35c0 -24 -6 -74 -77 -74
c-29 0 -60 4 -60 105c0 140 4 265 6 389l4 220c0 20 2 85 57 85c19 0 53 -5 54 -53z" />
    <glyph glyph-name="L" unicode="L" horiz-adv-x="506" 
d="M83 297v233c0 103 -6 289 80 289c49 0 47 -54 47 -90c0 -121 -11 -134 -11 -248c0 -31 5 -129 7 -170c2 -40 5 -71 6 -145c45 23 90 45 135 68c23 12 45 23 68 35c22 11 45 22 68 33c20 10 41 19 61 29l76 39c24 12 35 16 44 16c19 0 27 -13 27 -23
c0 -23 -35 -42 -52 -52l-27 -16c-74 -44 -223 -138 -297 -189l-119 -82c-74 -51 -132 -37 -132 40c0 128 19 44 19 233z" />
    <glyph glyph-name="M" unicode="M" horiz-adv-x="811" 
d="M212 753l228 -296c143 200 186 237 197 270l11 34c26 80 61 96 82 96c26 0 51 -25 51 -69c0 -103 -38 -235 -38 -417c0 -181 22 -198 22 -269c0 -63 -39 -82 -69 -82c-67 0 -68 114 -68 192c0 136 25 241 16 411c-68 -58 -150 -306 -228 -306c-47 0 -83 139 -228 277
c-8 -84 -16 -133 -16 -405c0 -93 10 -99 10 -131c0 -27 -32 -59 -64 -59c-20 0 -58 10 -58 87c0 42 3 80 6 125c2 42 9 167 10 239l3 224c1 46 8 125 80 125c34 0 39 -16 45 -29z" />
    <glyph glyph-name="N" unicode="N" horiz-adv-x="711" 
d="M195 715l2 -17c8 -68 111 -199 147 -259l56 -92c60 -98 84 -147 151 -210c-3 328 -10 436 -10 533v76c0 59 36 81 63 81c62 0 44 -102 43 -182l-5 -517c0 -44 7 -63 18 -91c9 -22 15 -40 15 -56c0 -30 -46 -50 -69 -50c-63 0 -226 232 -251 272l-49 80
c-41 67 -81 127 -120 181c-17 -150 -13 -232 -13 -270c0 -118 31 -112 31 -125c0 -30 -40 -66 -80 -66c-86 0 -67 123 -63 149c5 32 11 112 12 157l6 370c0 18 4 75 78 75c36 0 36 -19 38 -39z" />
    <glyph glyph-name="O" unicode="O" horiz-adv-x="672" 
d="M293 782l6 -5c21 -18 44 11 97 11c114 0 241 -126 241 -331c0 -286 -193 -453 -353 -453c-191 0 -249 221 -249 351c0 165 128 438 223 438c11 0 27 -4 35 -11zM315 701l-8 -10c-4 -6 -14 -8 -22 -8c-7 0 -22 3 -32 6c-78 -110 -104 -224 -104 -304
c0 -118 46 -268 164 -268c125 0 234 135 234 310c0 166 -90 289 -191 289c-21 0 -35 -8 -41 -15z" />
    <glyph glyph-name="P" unicode="P" horiz-adv-x="505" 
d="M37 679l112 85c99 75 260 141 371 141c74 0 101 -45 101 -96c0 -137 -256 -355 -426 -453c2 -119 0 -160 0 -207c0 -33 2 -49 5 -68c2 -15 6 -30 6 -44c0 -15 -5 -42 -51 -42c-37 0 -68 15 -68 80c0 66 12 88 12 135v34c0 35 0 39 -2 58c-2 12 -3 22 -3 43
c-11 9 -19 23 -19 35c0 8 2 25 21 36l3 222c-24 -20 -42 -26 -57 -26c-17 0 -27 10 -27 27c0 23 10 31 22 40zM198 468c135 82 323 252 323 330c0 27 -20 30 -34 30c-39 0 -138 -16 -280 -133c-5 -41 -13 -115 -9 -227z" />
    <glyph glyph-name="Q" unicode="Q" horiz-adv-x="661" 
d="M296 762l15 -14c35 8 54 17 87 17c104 0 228 -88 228 -300c0 -33 -3 -202 -99 -319c38 -47 86 -124 86 -176c0 -38 -11 -64 -26 -64c-17 0 -27 13 -34 24c-22 35 -52 77 -94 120l-6 -4c-51 -34 -85 -48 -134 -46c-175 -3 -284 127 -284 330c0 272 186 454 228 454
c14 0 24 -13 33 -22zM407 119l-51 58c-59 67 -63 93 -63 99c0 23 18 53 53 53c32 0 54 -27 69 -46l23 -30l33 -39c65 101 72 215 72 280c0 97 -50 201 -164 201c-128 0 -225 -118 -225 -341c0 -234 138 -254 192 -254c19 0 38 2 61 19z" />
    <glyph glyph-name="R" unicode="R" horiz-adv-x="584" 
d="M112 519l2 124c-10 -17 -33 -39 -51 -39c-17 0 -38 13 -38 48c0 111 238 194 411 194c71 0 136 -19 136 -88c0 -121 -187 -209 -338 -269c231 -133 402 -354 402 -470c0 -55 -42 -56 -53 -56c-41 0 -48 34 -64 66l-25 51c-29 59 -104 192 -282 304
c-1 -99 -4 -134 -6 -188c-3 -77 -6 -48 -6 -84c0 -75 26 -29 26 -71c0 -31 -30 -35 -65 -35c-66 0 -56 55 -55 94l1 41c3 119 6 185 2 274c-26 11 -47 23 -47 47s28 48 50 57zM212 702v-141c93 42 261 125 261 176c0 11 -14 25 -50 25c-73 0 -152 -31 -211 -60z" />
    <glyph glyph-name="S" unicode="S" horiz-adv-x="555" 
d="M260 576l28 -14c117 -58 248 -128 248 -266c0 -257 -417 -301 -511 -301c-9 0 -27 1 -27 20c0 17 23 20 31 21l110 18c228 37 281 140 281 202c0 47 -32 111 -112 157l-105 61c-72 42 -163 77 -163 154c0 116 229 247 355 247c10 0 36 -3 36 -41s-27 -46 -43 -49l-22 -4
c-117 -21 -193 -90 -193 -130c0 -36 59 -61 87 -75z" />
    <glyph glyph-name="T" unicode="T" horiz-adv-x="502" 
d="M-62 638l73 31c502 213 582 233 732 233c6 0 38 5 38 -13c0 -7 -4 -16 -17 -20l-43 -12c-111 -31 -302 -104 -409 -151c12 -268 13 -347 13 -379c0 -79 17 -318 -66 -318c-79 0 -47 235 -47 393v264c-81 -32 -124 -57 -189 -89l-60 -30c-47 -23 -73 11 -73 36
c0 33 27 46 48 55z" />
    <glyph glyph-name="U" unicode="U" horiz-adv-x="619" 
d="M494 804l22 -77c31 -107 61 -211 61 -314c0 -247 -114 -417 -284 -417c-233 0 -246 244 -246 356c0 117 40 469 126 469c32 0 37 -24 37 -52c0 -81 -58 -214 -58 -400c0 -71 15 -273 165 -273c148 0 168 200 168 315c0 80 -19 181 -45 261l-29 90c-8 24 -35 95 35 95
c33 0 41 -29 48 -53z" />
    <glyph glyph-name="V" unicode="V" horiz-adv-x="490" 
d="M441 672l46 118c14 36 26 43 33 43s15 -13 15 -26c0 -34 -31 -79 -138 -504l-60 -239c-8 -33 -15 -34 -29 -36l-16 -2c-7 -1 -15 -6 -30 -16l-9 -6c-47 -32 -61 17 -69 49l-26 109c-14 59 -22 105 -39 164c-20 75 -43 129 -65 189c-11 29 -47 146 -47 175
c0 34 31 63 56 63c38 0 48 -38 57 -68l16 -51c67 -213 83 -177 120 -344l18 -82c91 236 126 359 167 464z" />
    <glyph glyph-name="W" unicode="W" horiz-adv-x="698" 
d="M497 6l-184 308c-20 -109 -59 -318 -144 -318c-56 0 -58 58 -60 82c-3 42 -11 89 -29 185c-12 66 -37 209 -35 347l1 69c1 61 33 65 44 65c31 0 37 -34 39 -52l8 -67c22 -187 30 -203 72 -401c18 34 58 121 58 162c0 11 -2 21 -4 32c-2 8 -4 15 -4 23c0 26 35 63 57 63
c8 0 28 -3 39 -28l30 -68c24 -55 83 -168 146 -256c45 187 73 446 77 600l2 80c1 46 29 56 39 56c26 0 28 -35 28 -69c0 -57 -18 -271 -25 -348c-16 -166 -6 -110 -17 -264c-4 -50 -12 -143 -37 -190c-27 -48 -77 -51 -101 -11z" />
    <glyph glyph-name="X" unicode="X" horiz-adv-x="433" 
d="M174 407l-62 134c-80 173 -97 204 -97 232c0 33 25 50 53 50c38 0 46 -21 57 -49l19 -49c27 -70 49 -122 84 -192c78 122 81 148 125 214l16 24c25 38 70 6 57 -23l-60 -131c-35 -76 -46 -108 -92 -193c123 -296 154 -352 154 -387c0 -32 -26 -46 -44 -46
c-49 0 -86 131 -121 206l-47 101l-32 -64c-118 -236 -156 -320 -182 -320c-8 0 -13 6 -13 25c0 65 133 363 185 468z" />
    <glyph glyph-name="Y" unicode="Y" horiz-adv-x="446" 
d="M130 706l46 -76c36 -59 42 -85 94 -146c9 27 17 54 25 81c13 44 23 88 37 132l28 87c7 21 13 46 43 46c27 0 39 -11 39 -40c0 -14 -5 -37 -69 -286l-31 -120c7 -8 17 -28 17 -40s-14 -26 -28 -32c-24 -41 -61 -109 -112 -274l-42 -135c-9 -29 -18 -57 -51 -69
c-30 -11 -33 20 -21 57l52 165c9 28 21 74 71 286l-54 80c-137 203 -160 246 -160 266s15 59 60 59c30 0 41 -16 56 -41z" />
    <glyph glyph-name="Z" unicode="Z" horiz-adv-x="474" 
d="M504 236l51 19c40 15 53 -2 53 -17c0 -21 -19 -32 -27 -36l-171 -91c-53 -28 -211 -117 -273 -155l-62 -38c-46 -28 -58 -29 -65 -29c-13 0 -18 8 -18 22c0 11 6 27 126 314l36 86c66 159 128 284 175 377c-227 -112 -264 -122 -278 -122c-58 0 -47 54 -6 74l138 66
c233 111 260 131 284 131s26 -1 26 -26c0 -23 -21 -37 -70 -129c-27 -51 -54 -107 -95 -193l-66 -137c-69 -143 -94 -192 -121 -276c205 111 169 88 363 160z" />
    <glyph glyph-name="bracketleft" unicode="[" horiz-adv-x="347" 
d="M243 777l40 -1c6 -3 17 -11 17 -24c0 -90 -132 29 -132 -90c0 -40 11 -78 11 -248c0 -46 -5 -94 -5 -137c0 -58 6 -166 8 -182c7 -43 31 -35 56 -35c39 1 106 -4 106 -16s0 -38 -42 -38c-23 0 -43 4 -64 5c-16 1 -32 1 -48 2c-36 2 -46 -1 -58 2c-55 14 -56 147 -60 397
l-2 126c-2 100 -1 124 -1 154c0 109 80 65 174 85z" />
    <glyph glyph-name="backslash" unicode="\" horiz-adv-x="506" 
d="M138 863c44 -132 -4 -23 197 -576c38 -104 73 -198 117 -335c32 -84 34 -104 34 -120c0 -12 -4 -27 -9 -27c-13 0 -65 110 -80 153c-84 234 -231 605 -361 917c-17 49 16 73 40 73c32 0 48 -44 62 -85z" />
    <glyph glyph-name="bracketright" unicode="]" horiz-adv-x="347" 
d="M104 6l-40 1c-6 3 -17 11 -17 24c0 90 132 -29 132 90c0 40 -11 78 -11 248c0 46 5 94 5 137c0 58 -6 166 -8 182c-7 43 -31 35 -56 35c-39 -1 -106 4 -106 16s0 38 42 38c23 0 43 -4 64 -5c16 -1 32 -1 48 -2c36 -2 46 1 58 -2c55 -14 56 -147 60 -397l2 -126
c2 -100 1 -124 1 -154c0 -109 -80 -65 -174 -85z" />
    <glyph glyph-name="asciicircum" unicode="^" horiz-adv-x="456" 
d="M289 631l-22 26c-15 18 -15 25 -44 55c-68 -47 -90 -114 -138 -114c-20 0 -30 15 -30 28c0 11 8 18 16 26l5 5c56 56 79 77 106 111l17 22c13 17 20 35 58 35c27 0 29 -17 63 -55c35 -39 81 -76 81 -110c0 -14 -8 -52 -59 -52c-25 0 -39 7 -53 23z" />
    <glyph glyph-name="underscore" unicode="_" horiz-adv-x="763" 
d="M699 -250c-176 -21 -503 -14 -625 -10c-34 -4 -59 1 -71 33c-13 35 20 41 56 43c128 7 503 8 635 6c73 8 69 -30 69 -43c0 -22 -38 -26 -64 -29z" />
    <glyph glyph-name="grave" unicode="`" horiz-adv-x="197" 
d="M103 609l-48 23c-6 3 -11 2 -16 2c-7 0 -11 -2 -16 -2c-8 0 -23 -2 -23 30c0 45 32 52 50 52c42 0 147 -35 147 -116c0 -37 -25 -50 -34 -50c-25 0 3 22 -21 42c-11 9 -28 14 -39 19z" />
    <glyph glyph-name="a" unicode="a" horiz-adv-x="499" 
d="M430 89v-18c0 -30 5 -96 -60 -96c-38 0 -56 35 -47 73c-65 -38 -131 -44 -158 -44c-66 0 -143 31 -143 110c0 109 162 260 315 195v66c0 29 -4 62 -52 62c-55 0 -115 -52 -151 -78c-47 -35 -69 -8 -69 18c0 57 144 141 235 141c132 0 133 -106 133 -180v-164
c33 2 48 -21 48 -38c0 -16 -12 -34 -51 -47zM330 130v20c0 48 1 93 -73 93c-67 0 -136 -60 -136 -108c0 -22 16 -50 53 -50c32 0 100 12 156 45z" />
    <glyph glyph-name="b" unicode="b" horiz-adv-x="475" 
d="M187 -6l-54 -42c-21 -16 -49 -18 -49 16c0 18 8 40 23 57c-20 -9 -53 -13 -53 44c0 31 3 62 3 93c0 115 -17 105 -17 418c0 73 -5 187 60 187c26 0 42 -17 42 -49c0 -43 -6 -38 -6 -112c0 -71 6 -146 12 -317c33 80 105 179 194 179c91 0 113 -88 113 -136
c0 -136 -130 -231 -268 -338zM173 81c70 49 182 151 182 248c0 40 -23 48 -40 48c-66 0 -151 -196 -151 -255c0 -17 2 -28 9 -41z" />
    <glyph glyph-name="c" unicode="c" horiz-adv-x="407" 
d="M404 63c-22 -20 -84 -70 -192 -70c-116 0 -189 106 -189 211c0 176 153 304 262 304c57 0 84 -41 84 -75c0 -24 -16 -27 -23 -27c-8 0 -15 6 -22 9c-8 4 -17 6 -26 6c-76 0 -175 -86 -175 -206c0 -87 58 -144 148 -144c39 0 63 13 89 27c13 7 26 16 39 16
c22 0 25 -14 25 -21c0 -12 -11 -22 -20 -30z" />
    <glyph glyph-name="d" unicode="d" horiz-adv-x="505" 
d="M439 403v-39c0 -284 26 -283 26 -381c0 -43 -42 -50 -52 -50c-56 0 -52 58 -57 117l-4 47l-4 -4c-44 -44 -79 -93 -158 -93c-99 0 -167 85 -167 194c0 111 62 219 233 219c33 0 59 -4 84 -12c15 129 -9 87 1 256c5 79 45 84 57 84c45 0 45 -52 45 -74
c0 -23 -2 -44 -3 -65c-3 -65 -1 -133 -1 -199zM335 315c-32 9 -70 11 -99 11c-44 0 -113 -26 -113 -121c0 -74 42 -111 89 -111c33 0 88 15 127 100c-8 40 -9 80 -4 121z" />
    <glyph glyph-name="e" unicode="e" horiz-adv-x="373" 
d="M404 97c-36 -39 -133 -95 -213 -95c-146 0 -165 132 -165 188c0 176 128 310 234 310c40 0 77 -23 77 -64c0 -85 -157 -241 -205 -284c13 -41 38 -66 82 -66c64 0 126 37 161 58c30 18 44 -1 44 -19c0 -11 -8 -20 -15 -28zM208 335l20 25c6 8 23 32 23 40
c0 3 -2 12 -16 12c-47 0 -114 -93 -115 -174c30 29 59 61 88 97z" />
    <glyph glyph-name="f" unicode="f" horiz-adv-x="303" 
d="M78 244c-5 224 -16 516 179 516c70 0 126 -58 126 -120c0 -41 -23 -53 -40 -53c-30 0 -35 17 -44 45c-11 30 -21 51 -47 51c-32 0 -94 -47 -83 -389c112 65 134 75 150 75c22 0 25 -16 25 -23c0 -54 -117 -106 -167 -136c10 -196 32 -363 32 -467c0 -45 -1 -82 -43 -82
c-85 0 -71 288 -82 499c-67 -38 -83 -41 -89 -41c-19 0 -22 14 -22 21c0 20 25 42 105 104z" />
    <glyph glyph-name="g" unicode="g" horiz-adv-x="484" 
d="M-5 -285l48 -33c41 -28 102 -32 148 -32c139 0 151 68 151 214c0 147 -7 76 -11 242c-38 -58 -101 -96 -160 -96c-80 0 -151 56 -151 180c0 167 149 234 232 234c47 0 77 -24 96 -50c22 36 39 54 67 54c67 0 37 -100 26 -172c-13 -79 -9 -153 -9 -246c0 -47 2 -95 4 -142
c2 -33 4 -65 4 -98c0 -140 -99 -211 -223 -211c-95 0 -320 75 -320 133c0 23 22 75 98 23zM324 183l1 24c3 78 -8 135 -70 135c-56 0 -135 -65 -135 -158c0 -65 42 -87 79 -87c48 0 96 46 125 86z" />
    <glyph glyph-name="h" unicode="h" horiz-adv-x="447" 
d="M298 90v114c0 55 11 131 -32 131c-8 0 -31 -9 -94 -108c8 -104 10 -134 10 -162c0 -29 -4 -73 -57 -73c-54 0 -53 40 -56 104c-2 50 0 104 -7 211c-10 159 -22 210 -22 289c0 93 30 114 57 114c43 0 47 -62 49 -97l5 -105c1 -24 4 -68 15 -176c55 67 107 126 148 126
c77 0 72 -133 75 -212c1 -43 0 -72 6 -115c4 -28 11 -58 11 -83c0 -56 -41 -60 -50 -60c-62 0 -58 74 -58 102z" />
    <glyph glyph-name="i" unicode="i" horiz-adv-x="202" 
d="M174 689l-33 -29c-15 -13 -35 -29 -62 -29c-23 0 -47 17 -47 45c0 49 52 56 83 67l26 9c36 12 43 28 63 28c21 0 28 -19 28 -28c0 -17 -22 -32 -58 -63zM56 226l12 159c2 30 11 92 60 92c32 0 35 -26 35 -49c0 -57 -17 -157 -17 -253c0 -116 10 -7 10 -125
c0 -43 -35 -55 -52 -55c-55 0 -56 60 -56 85c0 55 4 99 8 146z" />
    <glyph glyph-name="j" unicode="j" horiz-adv-x="244" 
d="M53 491l39 11c32 9 47 19 61 19c18 0 46 -8 46 -50c0 -68 -16 -16 -16 -146c0 -108 15 -248 15 -370c0 -243 -148 -295 -279 -295c-63 0 -204 32 -204 90c0 18 13 39 43 39c25 0 44 -11 67 -23c34 -17 68 -26 99 -26c70 0 175 29 175 188c0 30 0 74 -11 488
c-47 -24 -90 -6 -90 26c0 35 27 41 55 49zM62 725c12 12 29 20 46 20c60 0 73 -46 73 -68c0 -24 -23 -47 -59 -47c-52 0 -76 32 -76 58c0 13 6 27 16 37z" />
    <glyph glyph-name="k" unicode="k" horiz-adv-x="492" 
d="M143 363l4 -86c194 111 236 236 292 236c8 0 28 -3 28 -27c0 -59 -120 -174 -224 -231c157 -10 239 -115 239 -204c0 -20 -6 -52 -49 -52c-21 0 -32 4 -40 38c-27 108 -151 148 -237 154c19 -112 21 -132 21 -147c0 -48 -37 -64 -64 -64c-76 0 -48 82 -55 262l-9 219
c-7 173 -9 98 -13 225c-2 55 21 63 41 63c81 0 52 -82 66 -386z" />
    <glyph glyph-name="l" unicode="l" horiz-adv-x="308" 
d="M150 274l1 -111c1 -70 19 -74 39 -74c33 0 71 23 102 63c34 43 52 65 67 65c9 0 25 -3 25 -28c0 -77 -151 -191 -251 -191c-71 0 -80 52 -81 106v45c1 70 10 396 17 521c5 83 44 94 65 94c12 0 33 -6 33 -33c0 -69 -19 -238 -17 -457z" />
    <glyph glyph-name="m" unicode="m" horiz-adv-x="658" 
d="M194 268l-33 -34c-3 -87 0 -93 0 -141c0 -51 -7 -99 -61 -99c-47 0 -42 54 -42 79c0 68 6 111 8 228c1 30 0 60 0 91c0 32 2 73 50 73c41 0 51 -24 53 -47c2 -16 0 -34 0 -70c25 23 134 109 175 109c35 0 34 -43 30 -89c92 65 137 107 176 107c58 0 57 -52 57 -83
c0 -102 -15 -144 -15 -217c0 -40 2 -54 7 -66l6 -15c14 -36 -2 -81 -51 -81c-56 0 -63 48 -63 88c0 35 2 69 7 142c5 74 5 94 5 107c0 9 -1 28 -16 28c-23 0 -102 -82 -113 -95c0 -13 1 -26 1 -39c0 -15 0 -29 1 -44c1 -17 2 -35 3 -52c1 -15 3 -30 3 -45
c0 -81 -43 -94 -58 -94c-48 0 -48 50 -48 77c0 107 14 179 14 229c0 10 0 20 -12 20s-66 -49 -84 -67z" />
    <glyph glyph-name="n" unicode="n" horiz-adv-x="493" 
d="M161 326l19 22c104 121 171 126 193 126c68 0 60 -62 64 -168l3 -78c4 -107 13 -65 13 -143c0 -62 -43 -70 -61 -70c-56 0 -56 64 -56 110c0 18 0 37 1 55c1 39 5 79 5 117c0 44 1 80 -21 80c-21 0 -40 -16 -125 -115l-30 -35c2 -148 13 -128 13 -190
c0 -38 -36 -62 -69 -62c-65 0 -51 71 -49 141l2 62c4 126 -23 195 -23 220c0 52 41 63 63 63c49 0 54 -44 56 -90z" />
    <glyph glyph-name="o" unicode="o" horiz-adv-x="419" 
d="M389 242c0 -119 -72 -247 -191 -247c-114 0 -168 127 -168 267c0 130 50 250 180 250c159 0 179 -176 179 -270zM303 245c0 164 -51 196 -82 196c-41 0 -91 -52 -91 -184c0 -110 51 -169 92 -169c34 0 81 47 81 157z" />
    <glyph glyph-name="p" unicode="p" horiz-adv-x="585" 
d="M63 -145v508c0 91 -4 152 60 152c51 0 47 -43 47 -70c0 -48 -9 -70 -9 -162c178 218 285 240 338 240c63 0 69 -41 69 -72c0 -226 -244 -456 -342 -456c-20 0 -27 12 -27 26c0 22 16 35 28 44l44 31c97 68 193 223 193 298c0 28 -14 42 -41 22l-43 -32
c-101 -75 -227 -200 -227 -352c0 -118 2 -318 15 -373l7 -30c16 -68 -37 -111 -69 -111c-14 0 -48 6 -48 73c0 34 4 33 5 100v32v132z" />
    <glyph glyph-name="q" unicode="q" horiz-adv-x="525" 
d="M371 381l-3 75c-1 28 -2 67 46 67c80 0 54 -173 70 -523l7 -149c2 -36 3 -73 6 -108c2 -22 6 -44 6 -68c0 -28 -2 -65 -42 -65c-70 0 -71 173 -71 487c-13 -26 -53 -95 -184 -95c-105 0 -175 83 -175 211s93 214 227 214c30 0 71 -3 113 -46zM354 231
c0 37 -19 119 -107 119c-79 0 -116 -73 -116 -138c0 -37 20 -127 110 -127c105 0 113 99 113 146z" />
    <glyph glyph-name="r" unicode="r" horiz-adv-x="343" 
d="M52 243l-4 55c-7 93 -8 116 -8 126c0 31 -1 65 43 65c52 0 62 -33 62 -92c0 -22 -2 -37 0 -78c26 44 97 159 160 159c43 0 60 -38 60 -85c0 -42 -21 -51 -34 -51c-33 0 -39 26 -54 26c-36 0 -107 -145 -107 -189c0 -33 3 -60 3 -99c0 -79 -32 -91 -61 -91
c-75 0 -43 23 -60 254z" />
    <glyph glyph-name="s" unicode="s" horiz-adv-x="349" 
d="M189 183l-49 30c-88 54 -108 115 -108 159c0 101 135 159 199 159c40 0 51 -25 51 -44c0 -31 -34 -40 -72 -53c-36 -12 -82 -24 -82 -60c0 -24 24 -52 51 -69l53 -33c57 -36 112 -69 112 -116c0 -86 -171 -218 -317 -218c-31 0 -34 17 -34 24c0 19 20 24 35 28l43 13
c93 28 177 88 177 127c0 23 -35 38 -59 53z" />
    <glyph glyph-name="t" unicode="t" horiz-adv-x="312" 
d="M63 569l-5 95c-2 29 12 72 52 72c45 0 50 -28 50 -79v-40l77 37c31 15 47 35 76 35c12 0 25 0 25 -16c0 -17 -18 -32 -67 -60l-109 -61l15 -114c16 -121 4 -152 9 -255l2 -39c4 -77 72 50 110 50c19 0 34 -10 34 -23c0 -17 -16 -25 -29 -38l-27 -27
c-20 -20 -37 -46 -71 -88c-14 -17 -37 -37 -74 -37c-31 0 -39 33 -39 52c0 33 1 65 1 97c0 56 -4 119 -10 204l-12 168c-42 -22 -61 -62 -90 -62c-21 0 -34 7 -34 26c0 35 48 61 116 103z" />
    <glyph glyph-name="u" unicode="u" horiz-adv-x="458" 
d="M412 143l11 -47c20 -84 -37 -93 -51 -93c-25 0 -52 30 -54 82c-31 -50 -89 -87 -132 -87c-113 0 -130 150 -136 274c-2 47 -3 94 0 140c3 56 9 85 56 85c58 0 49 -59 49 -120c0 -23 -1 -45 -1 -68c0 -95 7 -210 69 -210c25 0 77 18 77 157v52c0 58 -2 72 -2 96
c0 44 10 78 49 78c17 0 48 -8 48 -82v-80c0 -39 -1 -99 17 -177z" />
    <glyph glyph-name="v" unicode="v" horiz-adv-x="332" 
d="M98 474l12 -61c27 -138 49 -216 59 -252c9 29 19 58 28 87c12 38 24 77 36 115l39 120c4 12 12 36 29 36c29 0 17 -43 12 -68l-18 -86c-58 -278 -95 -373 -149 -373c-24 0 -36 11 -47 61l-8 35c-53 232 -79 326 -79 373c0 40 28 52 46 52c14 0 33 -3 40 -39z" />
    <glyph glyph-name="w" unicode="w" horiz-adv-x="512" 
d="M267 177l-8 16c-17 -47 -80 -203 -129 -203c-62 0 -81 179 -81 293c0 94 1 189 71 189c27 0 33 -12 33 -38c0 -64 -15 -55 -15 -161c0 -45 6 -82 20 -125c29 43 39 75 51 117l15 54c5 18 15 40 47 40c22 0 29 -12 34 -32l10 -36c13 -48 46 -112 71 -150
c12 57 11 89 11 145v32c1 145 5 201 44 201c14 0 31 -4 31 -38c0 -55 -6 -12 -6 -142c0 -29 2 -57 2 -86c0 -88 8 -224 -82 -224c-52 0 -87 83 -119 148z" />
    <glyph glyph-name="x" unicode="x" horiz-adv-x="420" 
d="M145 449l18 -36c13 -25 21 -46 48 -88c38 45 160 155 200 155c35 0 51 -37 23 -65l-175 -172c5 -8 30 -44 65 -75l41 -37c23 -21 27 -44 27 -59c0 -27 -24 -49 -59 -49c-45 0 -76 45 -113 95l-29 39c-29 -37 -51 -71 -74 -112l-43 -77c-13 -23 -36 -21 -47 -12
c-24 19 -6 55 1 72l29 68c21 50 40 91 78 146c-101 144 -111 187 -111 203c0 33 33 59 58 59c17 0 43 -14 63 -55z" />
    <glyph glyph-name="y" unicode="y" horiz-adv-x="365" 
d="M120 455l27 -60c19 -43 33 -73 59 -124c52 114 24 58 75 174l23 52c8 19 39 18 52 10c17 -10 10 -31 8 -36l-61 -177c-29 -85 -114 -340 -236 -608l-24 -53c-6 -13 -14 -28 -32 -28c-15 0 -31 10 -31 32c0 34 23 70 131 373l47 132c-22 40 -146 265 -146 301
c0 32 30 54 56 54c30 0 43 -22 52 -42z" />
    <glyph glyph-name="z" unicode="z" horiz-adv-x="366" 
d="M204 487l59 31c46 24 76 -13 56 -55l-29 -61c-92 -193 -134 -288 -157 -342c195 106 213 156 257 156c23 0 29 -16 29 -27c0 -63 -301 -258 -367 -258c-46 0 -61 33 -40 75l61 122c35 70 82 177 112 249c-59 -35 -73 -53 -107 -53c-38 0 -48 29 -48 46c0 28 20 39 44 51
c122 60 75 37 130 66z" />
    <glyph glyph-name="braceleft" unicode="{" horiz-adv-x="361" 
d="M322 29l28 -4c10 -1 7 -17 -1 -23c-10 -7 -32 -13 -59 -13c-174 0 -157 63 -162 220c-4 134 -9 166 -22 184c-21 28 -57 33 -57 53c0 17 16 20 30 23c59 11 53 36 55 119v52c0 124 -1 197 134 197c23 0 35 -13 35 -28c0 -41 -88 15 -88 -89c0 -46 6 -113 6 -142
c0 -70 4 -111 -83 -145c99 -30 67 -102 80 -253c12 -135 5 -137 104 -151z" />
    <glyph glyph-name="bar" unicode="|" horiz-adv-x="192" 
d="M157 837c-6 -109 -26 -337 -25 -750c1 -310 -22 -359 -39 -359c-32 0 -26 104 -26 157c0 69 1 137 0 206c-1 96 -3 191 -2 287c2 187 12 251 0 506c-1 48 33 56 49 56c34 0 41 -25 43 -49c2 -19 1 -36 0 -54z" />
    <glyph glyph-name="braceright" unicode="}" horiz-adv-x="361" 
d="M39 797l-28 4c-10 1 -7 17 1 23c10 7 32 13 59 13c174 0 157 -63 162 -220c4 -134 9 -166 22 -184c21 -28 57 -33 57 -53c0 -17 -16 -20 -30 -23c-59 -11 -53 -36 -55 -119v-52c0 -124 1 -197 -134 -197c-23 0 -35 13 -35 28c0 41 88 -15 88 89c0 46 -6 113 -6 142
c0 70 -4 111 83 145c-99 30 -67 102 -80 253c-12 135 -5 137 -104 151z" />
    <glyph glyph-name="asciitilde" unicode="~" horiz-adv-x="490" 
d="M243 724l18 -12c20 -14 40 -31 85 6l42 35c27 23 57 7 57 -14c0 -77 -152 -160 -231 -120c-18 9 -31 18 -56 18c-14 0 -28 -3 -46 -6c-12 -3 -19 -5 -27 -5c-37 0 -40 36 -40 46c0 42 126 100 198 52z" />
    <glyph glyph-name="afii10051" unicode="&#x402;" horiz-adv-x="734" 
d="M-62 638l73 31c502 213 582 233 732 233c6 0 38 5 38 -13c0 -7 -4 -16 -17 -20l-43 -12c-111 -31 -302 -104 -409 -151c3 -65 6 -152 10 -253c60 35 132 59 189 59c118 0 183 -90 189 -192c15 -170 -83 -343 -219 -343c-74 0 -103 38 -103 64c0 29 22 29 32 29
c29 0 39 -10 64 -10c76 0 127 113 127 236c0 48 -41 115 -111 115c-54 0 -125 -42 -165 -68c0 -98 18 -334 -66 -334c-79 0 -47 235 -47 393v264c-81 -32 -124 -57 -189 -89l-60 -30c-47 -23 -73 11 -73 36c0 33 27 46 48 55z" />
    <glyph glyph-name="quotesinglbase" unicode="&#x201a;" horiz-adv-x="176" 
d="M32 -175l11 23c17 35 28 95 28 130c0 33 -11 55 -11 68c0 12 22 42 54 42c39 0 42 -43 42 -67c0 -86 -31 -125 -73 -195l-17 -28c-11 -17 -17 -29 -33 -24c-12 3 -13 13 -13 19c0 11 6 19 12 32z" />
    <glyph glyph-name="quotedblbase" unicode="&#x201e;" horiz-adv-x="322" 
d="M178 -175l11 23c17 35 28 95 28 130c0 33 -11 55 -11 68c0 12 22 42 54 42c39 0 42 -43 42 -67c0 -86 -31 -125 -73 -195l-17 -28c-11 -17 -17 -29 -33 -24c-12 3 -13 13 -13 19c0 11 6 19 12 32zM101 -144l-14 -30c-18 -38 -31 -54 -44 -54c-10 0 -23 7 -23 29
c0 34 46 129 46 161c0 5 -4 19 -6 26c-3 10 -8 17 -8 28c0 27 15 61 61 61c31 0 49 -22 49 -58c0 -62 -39 -117 -61 -163z" />
    <glyph glyph-name="ellipsis" unicode="&#x2026;" horiz-adv-x="559" 
d="M20 61c0 28 49 61 83 61c12 0 39 -8 39 -46c0 -31 -30 -62 -63 -62c-26 0 -59 26 -59 47zM232 49c0 28 49 61 83 61c12 0 39 -8 39 -46c0 -31 -30 -62 -63 -62c-26 0 -59 26 -59 47zM417 61c0 28 49 61 83 61c12 0 39 -8 39 -46c0 -31 -30 -62 -63 -62
c-26 0 -59 26 -59 47z" />
    <glyph glyph-name="dagger" unicode="&#x2020;" horiz-adv-x="564" 
d="M206 502l46 26c22 93 13 223 95 223c44 0 45 -37 45 -63c0 -28 -9 -68 -16 -98c38 8 28 11 52 17c19 5 40 0 60 3c3 0 5 1 8 2c21 5 32 13 69 13c27 0 39 -12 39 -19c0 -4 -2 -20 -175 -90l-69 -28l-14 -52c-12 -46 -35 -204 -35 -271c0 -45 9 -62 9 -95
c0 -50 -21 -52 -36 -52c-43 0 -98 115 -62 351l8 53c-15 -1 -33 -6 -45 -14l-42 -28c-14 -9 -53 -27 -78 -27c-30 0 -35 18 -35 33c0 23 16 31 30 38l56 28c34 17 59 33 90 50z" />
    <glyph glyph-name="daggerdbl" unicode="&#x2021;" horiz-adv-x="568" 
d="M210 482l46 26c22 93 13 223 95 223c44 0 45 -37 45 -63c0 -28 -9 -68 -16 -98c38 8 28 11 52 17c19 5 40 0 60 3c3 0 5 1 8 2c21 5 32 13 69 13c27 0 39 -12 39 -19c0 -4 -2 -20 -175 -90l-69 -28l-14 -52l-8 -36c65 31 152 40 191 40c27 0 39 -12 39 -19
c0 -16 -120 -68 -175 -90l-68 -27c-9 -78 -14 -108 -14 -139c0 -45 9 -62 9 -95c0 -50 -21 -52 -36 -52c-72 0 -70 171 -71 242c-29 -23 -37 -22 -49 -29l-23 -14c-18 -11 -57 -31 -80 -31c-34 0 -35 25 -35 33c0 23 17 32 30 38l39 18c24 11 91 50 123 69l12 78
c-15 -1 -33 -6 -45 -14l-42 -28c-14 -9 -53 -27 -78 -27c-30 0 -35 18 -35 33c0 23 16 31 30 38l56 28c34 17 59 33 90 50z" />
    <glyph glyph-name="circumflex" unicode="&#x2c6;" horiz-adv-x="311" 
d="M210 566l-19 25c-14 18 -16 27 -40 50c-50 -34 -82 -103 -119 -103c-25 0 -32 15 -32 30c0 24 66 50 121 131c16 24 21 43 61 43c27 0 36 -28 79 -74l27 -29c11 -12 23 -28 23 -41c0 -15 -7 -51 -47 -51c-19 0 -43 5 -54 19z" />
    <glyph glyph-name="perthousand" unicode="&#x2030;" horiz-adv-x="1109" 
d="M447 744c0 -70 -85 -185 -168 -185c-79 0 -101 59 -101 93c0 20 42 80 86 114c-13 36 52 76 91 76c40 0 92 -38 92 -98zM773 857c-17 -34 -42 -67 -222 -326c-328 -470 -336 -496 -363 -561c-11 -26 -84 -175 -84 -144c0 17 -20 94 288 591c286 458 323 489 351 489
c15 0 38 0 38 -11s-1 -25 -8 -38zM744 206c0 -55 -58 -153 -153 -153c-79 0 -106 56 -106 113c0 82 74 160 124 160c38 0 135 -59 135 -120zM327 710c-17 -17 -46 -42 -46 -67c0 -5 0 -15 4 -15c47 0 109 84 109 99c0 21 -28 54 -43 54c-9 0 -27 -12 -27 -18
c0 -13 12 -3 12 -37c0 -7 -6 -13 -9 -16zM682 206c0 30 -48 36 -59 36c-23 0 -52 -44 -52 -84v-1c0 -19 22 -49 39 -49c37 0 72 70 72 98zM1074 206c0 -55 -58 -153 -153 -153c-79 0 -106 56 -106 113c0 82 74 160 124 160c38 0 135 -59 135 -120zM1012 206
c0 30 -48 36 -59 36c-23 0 -52 -44 -52 -84v-1c0 -19 22 -49 39 -49c37 0 72 70 72 98z" />
    <glyph glyph-name="afii10058" unicode="&#x409;" horiz-adv-x="917" 
d="M442 49l-5 54l-1 40c-2 74 -20 345 -31 421c-9 65 -13 90 -21 90c-11 0 -31 -12 -98 -131c-58 -103 -116 -207 -184 -349l-40 -84c-11 -22 -18 -61 -62 -61c-28 0 -57 11 -57 50c0 17 6 65 196 364l154 242c39 62 86 151 152 151c63 0 65 -139 78 -284l5 -56
c72 50 179 87 248 87c84 0 126 -56 126 -130c0 -138 -149 -303 -255 -382l-50 -37c-24 -17 -55 -47 -89 -47c-28 0 -61 14 -66 62zM537 391l10 -124c5 -60 0 -78 10 -144c116 90 243 204 243 313c0 29 -10 46 -54 46c-71 0 -155 -48 -209 -91z" />
    <glyph glyph-name="quilsinglleft" horiz-adv-x="412" 
d="M311 503l-32 -50c-16 -26 -44 -53 -67 -82c-5 -6 -13 -17 -44 -61c174 -91 194 -186 194 -230c0 -6 0 -16 -10 -16c-13 0 -19 18 -39 40l-17 19c-13 14 -108 59 -164 80c-68 25 -82 29 -82 57c0 33 17 71 52 106l33 33c25 25 80 82 99 107l23 30c13 17 36 19 43 19
c19 0 33 -17 11 -52z" />
    <glyph glyph-name="afii10059" unicode="&#x40a;" horiz-adv-x="944" 
d="M674 111l-50 -37c-29 -21 -41 -35 -76 -45c-65 -37 -97 37 -98 97l-2 204c0 40 6 56 -1 114c-26 -8 -263 -88 -263 -166c0 -35 19 -93 19 -209c0 -17 0 -73 -68 -73c-40 0 -52 24 -52 67c0 13 2 26 2 38c0 100 -20 86 -20 301c0 115 -23 350 83 350c21 0 43 -17 43 -69
c0 -177 -13 -43 -14 -277l101 45c55 25 97 35 170 85c0 232 21 284 71 284c38 0 52 -20 52 -53c0 -24 -6 -46 -10 -68c-4 -23 -6 -47 -6 -71l1 -68c62 32 170 63 247 63c97 0 126 -71 126 -130c0 -138 -149 -303 -255 -382zM563 475c5 -129 11 -226 16 -317
c122 99 248 207 248 318c0 39 -22 46 -54 46c-59 0 -145 -20 -210 -47z" />
    <glyph glyph-name="afii10060" unicode="&#x40b;" horiz-adv-x="725" 
d="M-62 638l73 31c502 213 582 233 732 233c6 0 38 5 38 -13c0 -7 -4 -16 -17 -20l-43 -12c-111 -31 -302 -104 -409 -151c3 -65 6 -152 10 -253c60 35 132 59 189 59c45 0 179 -4 179 -186c0 -103 17 -290 -78 -290c-57 0 -44 80 -39 133l10 114c4 41 -1 128 -93 128
c-54 0 -126 -42 -165 -68c0 -98 18 -334 -66 -334c-79 0 -47 235 -47 393v264c-81 -32 -124 -57 -189 -89l-60 -30c-47 -23 -73 11 -73 36c0 33 27 46 48 55z" />
    <glyph glyph-name="afii10145" unicode="&#x40f;" horiz-adv-x="643" 
d="M637 72l-37 -15c-27 -11 -158 -57 -197 -70c4 -9 5 -17 5 -38c0 -76 -12 -95 -73 -195l-17 -28c-11 -17 -17 -29 -33 -24c-12 3 -13 13 -13 19c0 11 6 19 12 32l11 23c16 34 28 95 28 130c0 13 -6 38 -10 52c-123 -42 -213 -55 -272 -55c-6 0 -38 -5 -38 13
c0 7 4 16 17 20l43 12c29 8 20 52 21 109c0 23 1 48 1 73c0 373 -2 393 -25 493l-4 17c-18 77 35 95 58 95c86 0 87 -159 87 -634v-46c0 -23 -1 -40 -7 -64c115 40 181 65 278 108c-8 95 -17 248 -17 332c0 125 -6 326 71 326c79 0 46 -239 46 -354v-264l16 10l24 14
c38 22 73 -4 73 -36c0 -34 -28 -47 -48 -55z" />
    <glyph glyph-name="afii10099" unicode="&#x452;" horiz-adv-x="482" 
d="M151 505c4 -60 9 -117 15 -173c59 73 104 126 148 126c45 0 143 -39 143 -266c0 -228 -136 -376 -278 -376c-74 0 -103 36 -103 64c0 29 22 29 32 29c12 0 22 -4 33 -6c10 -2 21 -4 31 -4c80 0 186 69 186 269c0 98 -43 172 -75 172c-34 0 -78 -61 -111 -113
c8 -104 10 -134 10 -162c0 -29 -4 -73 -57 -73c-54 0 -53 40 -56 104c-4 101 -2 217 -22 386l-41 -7c-34 -7 -60 -5 -69 29c-8 35 17 45 59 49l45 13c-4 71 3 144 56 144c44 0 46 -62 49 -97l1 -14c95 25 88 30 187 38c21 1 87 -8 87 -24c0 -47 -212 -82 -270 -108z" />
    <glyph glyph-name="quoteleft" unicode="&#x2018;" horiz-adv-x="176" 
d="M159 853l-11 -23c-17 -35 -28 -95 -28 -130c0 -33 11 -55 11 -68c0 -12 -22 -42 -54 -42c-39 0 -42 43 -42 67c0 86 31 125 73 195l17 28c11 17 17 29 33 24c12 -3 13 -13 13 -19c0 -11 -6 -19 -12 -32z" />
    <glyph glyph-name="quoteright" unicode="&#x2019;" horiz-adv-x="176" 
d="M47 643l11 23c17 35 28 95 28 130c0 33 -11 55 -11 68c0 12 22 42 54 42c39 0 42 -43 42 -67c0 -86 -31 -125 -73 -195l-17 -28c-11 -17 -17 -29 -33 -24c-12 3 -13 13 -13 19c0 11 6 19 12 32z" />
    <glyph glyph-name="quotedblleft" unicode="&#x201c;" horiz-adv-x="322" 
d="M159 853l-11 -23c-17 -35 -28 -95 -28 -130c0 -33 11 -55 11 -68c0 -12 -22 -42 -54 -42c-39 0 -42 43 -42 67c0 86 31 125 73 195l17 28c11 17 17 29 33 24c12 -3 13 -13 13 -19c0 -11 -6 -19 -12 -32zM236 822l14 30c18 38 31 54 44 54c10 0 23 -7 23 -29
c0 -34 -46 -129 -46 -161c0 -5 4 -19 6 -26c3 -10 8 -17 8 -28c0 -27 -15 -61 -61 -61c-31 0 -49 22 -49 58c0 62 39 117 61 163z" />
    <glyph glyph-name="quotedblright" unicode="&#x201d;" horiz-adv-x="322" 
d="M193 643l11 23c17 35 28 95 28 130c0 33 -11 55 -11 68c0 12 22 42 54 42c39 0 42 -43 42 -67c0 -86 -31 -125 -73 -195l-17 -28c-11 -17 -17 -29 -33 -24c-12 3 -13 13 -13 19c0 11 6 19 12 32zM116 674l-14 -30c-18 -38 -31 -54 -44 -54c-10 0 -23 7 -23 29
c0 34 46 129 46 161c0 5 -4 19 -6 26c-3 10 -8 17 -8 28c0 27 15 61 61 61c31 0 49 -22 49 -58c0 -62 -39 -117 -61 -163z" />
    <glyph glyph-name="bullet" unicode="&#x2022;" horiz-adv-x="363" 
d="M238 504l22 -6c32 -9 55 -60 55 -112c0 -118 -110 -166 -144 -166c-51 0 -115 85 -115 134c0 50 59 170 123 170c25 0 37 -14 59 -20z" />
    <glyph glyph-name="endash" unicode="&#x2013;" horiz-adv-x="711" 
d="M591 406c-65 -13 -145 -46 -222 -71c-151 -49 -128 -47 -262 -67c-34 -7 -60 -5 -69 29c-8 35 17 45 59 49c281 67 343 115 490 126c21 1 87 -8 87 -24c0 -33 -55 -36 -83 -42z" />
    <glyph glyph-name="emdash" unicode="&#x2014;" horiz-adv-x="1024" 
d="M871 450c-86 -10 -456 -103 -571 -135c-60 -21 -85 -23 -160 -34c-34 -7 -60 -5 -69 29c-8 35 17 45 59 49c483 107 569 142 737 157c21 1 87 -8 87 -24c0 -32 -55 -39 -83 -42z" />
    <glyph glyph-name="tilde" unicode="&#x2dc;" horiz-adv-x="359" 
d="M178 652l16 -11c9 -7 18 -15 30 -15c25 0 70 35 85 52c25 20 50 8 50 -6c0 -45 -126 -161 -209 -116c-17 13 -32 16 -53 16c-26 0 -48 -8 -68 -8c-25 0 -29 31 -29 43c0 50 112 74 178 45z" />
    <glyph glyph-name="trademark" unicode="&#x2122;" horiz-adv-x="613" 
d="M-83 630l35 14c139 56 237 113 354 113c23 0 27 -10 27 -13c0 -6 -4 -16 -14 -19l-20 -6c-46 -14 -66 -17 -191 -69c4 -105 7 -138 7 -177c0 -70 5 -161 -40 -161c-47 0 -31 110 -31 197v115c-39 -18 -60 -28 -80 -38l-29 -15c-28 -15 -45 9 -45 24c0 22 16 30 27 35z
M310 677l102 -132c72 100 80 97 87 118l6 17c6 18 18 51 46 51c7 0 32 -2 32 -41c0 -16 -2 -22 -4 -32c-4 -22 -12 -113 -13 -139v-29c1 -55 1 -78 5 -98c2 -10 5 -20 5 -30c0 -30 -18 -48 -42 -48c-43 0 -39 67 -39 100v34c1 56 8 156 8 135c0 -45 -58 -127 -103 -127
c-22 0 -86 91 -102 124c-5 -42 -7 -154 -7 -178c0 -17 3 -17 4 -31v-10c0 -8 1 -16 1 -23c0 -12 -18 -35 -38 -35c-36 0 -36 38 -36 51c0 38 0 36 2 60c3 42 4 51 5 114l2 107c0 23 3 68 46 68c24 0 26 -13 29 -18z" />
    <glyph glyph-name="afii10106" unicode="&#x459;" horiz-adv-x="614" 
d="M237 381c-42 -54 -98 -132 -137 -204l-78 -142c-8 -14 -17 -25 -45 -25c-7 0 -16 5 -16 11c0 18 8 43 17 61l60 118c157 310 227 322 255 322c34 0 28 -42 29 -71l1 -40c1 -34 4 -72 8 -122c32 37 72 56 123 56c78 0 138 -46 138 -125c0 -126 -124 -225 -212 -225
c-157 0 -131 180 -143 386zM341 132c3 -19 13 -65 54 -65c50 0 108 94 108 138c0 45 -42 64 -77 64c-42 0 -76 -51 -90 -97c1 -14 3 -27 5 -40z" />
    <glyph glyph-name="quilsinglright" horiz-adv-x="418" 
d="M245 440l81 -60c13 -10 42 -26 42 -46c0 -12 -11 -25 -20 -37l-34 -46c-27 -37 -99 -130 -116 -151l-24 -30c-30 -37 -42 -47 -53 -47c-7 0 -17 6 -17 13c0 13 10 29 20 48l10 18c34 62 70 121 118 188c-182 123 -202 160 -202 174c0 24 22 62 55 62c30 0 68 -33 140 -86
z" />
    <glyph glyph-name="afii10107" unicode="&#x45a;" horiz-adv-x="701" 
d="M149 271l62 30c45 22 67 26 113 61c-1 51 1 78 4 104c-5 74 33 78 44 78c37 0 43 -27 43 -42c0 -10 -2 -19 -4 -28c-3 -16 -2 -32 -2 -48c1 -51 0 -74 3 -143c38 45 80 62 129 62c78 0 138 -46 138 -125c0 -126 -124 -225 -212 -225c-122 0 -128 118 -131 187
c-2 48 -5 76 -10 104c-46 -23 -49 -31 -170 -99c5 -42 22 -113 22 -169c0 -43 -37 -51 -53 -51c-40 0 -44 33 -44 51v27c0 35 -4 16 -7 113c-21 -5 -28 -5 -30 -5c-8 0 -28 6 -28 30c0 33 12 42 46 56c-2 116 -1 147 -1 167c0 57 9 102 54 102c14 0 38 -10 38 -53
c0 -31 -2 -52 -3 -78c-1 -16 -1 -41 -1 -106zM428 132c3 -19 13 -65 54 -65c50 0 108 94 108 138c0 45 -42 64 -77 64c-42 0 -76 -51 -90 -97c1 -14 3 -27 5 -40z" />
    <glyph glyph-name="afii10108" unicode="&#x45b;" horiz-adv-x="447" 
d="M298 90v114c0 55 11 131 -32 131c-8 0 -31 -9 -94 -108c8 -104 10 -134 10 -162c0 -29 -4 -73 -57 -73c-54 0 -53 40 -56 104c-4 101 -2 217 -22 386l-41 -7c-34 -7 -60 -5 -69 29c-8 35 17 45 59 49l45 13c-4 71 3 144 56 144c44 0 46 -62 49 -97l1 -14
c94 25 132 42 224 49c21 1 87 -8 87 -24c0 -48 -209 -75 -307 -119c4 -60 9 -117 15 -173c55 67 107 126 148 126c77 0 72 -133 75 -212c1 -43 0 -72 6 -115c4 -28 11 -58 11 -83c0 -56 -41 -60 -50 -60c-62 0 -58 74 -58 102z" />
    <glyph glyph-name="afii10193" unicode="&#x45f;" horiz-adv-x="471" 
d="M401 475v-27c0 -75 16 -73 8 -303c21 5 28 5 30 5c8 0 28 -6 28 -30c0 -35 -17 -47 -55 -58l-99 -29c7 -16 9 -28 9 -49c0 -86 -30 -124 -73 -195l-17 -28c-11 -17 -17 -29 -33 -24c-12 3 -13 13 -13 19c0 11 6 19 12 32l11 23c16 34 28 96 28 130c0 4 -1 16 -11 65
c-92 -31 -119 -31 -128 -31c-28 0 -43 14 -43 42c0 46 7 9 6 76c-3 144 -11 143 -18 216l-5 54c-6 63 -21 139 44 139c23 0 53 -23 55 -78l4 -119c3 -93 1 -194 -1 -248c109 32 133 34 192 62c3 229 -28 195 -28 356c0 43 38 51 53 51c40 0 44 -33 44 -51z" />
    <glyph glyph-name="afii10057" unicode="&#x408;" horiz-adv-x="472" 
d="M93 96l23 -9c18 -7 50 -11 72 -11c120 0 136 78 136 156c0 47 -3 91 -8 137c-6 61 -10 99 -10 140c0 49 8 117 21 174c-46 -8 -89 -24 -130 -48l-85 -50c-26 -15 -39 -17 -44 -17c-19 0 -39 10 -39 38c0 64 79 80 185 129c28 13 180 80 223 80c11 0 46 0 46 -37
c0 -20 -17 -47 -38 -92c-38 -81 -39 -151 -39 -227c0 -26 2 -101 3 -123c3 -82 6 -71 6 -106c0 -187 -136 -232 -219 -232c-69 0 -173 35 -173 83c0 41 57 20 70 15z" />
    <glyph glyph-name="afii10050" unicode="&#x490;" horiz-adv-x="414" 
d="M529 815l-37 -16c-175 -76 -239 -105 -303 -163c-8 -113 -15 -276 -5 -401l7 -87c4 -47 25 -149 -69 -149c-47 0 -46 47 -45 71l4 161c8 314 13 262 12 381c-14 10 -47 47 -47 63c0 14 28 31 48 36c-2 59 25 70 47 70c19 0 43 -15 57 -31c67 33 139 63 237 97l55 19
l19 33c14 25 15 57 36 57c8 0 34 9 34 -26c0 -87 -20 -102 -50 -115z" />
    <glyph glyph-name="brokenbar" unicode="&#xa6;" horiz-adv-x="194" 
d="M159 837c-1 -40 2 -80 0 -122c-7 -165 -24 -268 -44 -268c-49 0 -41 353 -48 437c-1 48 33 56 49 56c34 0 41 -25 43 -49c2 -19 0 -36 0 -54zM157 172c-1 -30 -13 -444 -54 -444c-32 0 -26 104 -26 157c-3 105 -6 216 -12 334c-1 48 33 56 49 56c34 0 41 -25 43 -49
c2 -19 1 -36 0 -54z" />
    <glyph glyph-name="section" unicode="&#xa7;" horiz-adv-x="424" 
d="M137 466l-18 20c-21 23 -59 80 -59 146c0 110 80 172 150 172c84 0 146 -71 146 -129c0 -33 -15 -52 -30 -52c-28 0 -39 25 -47 43l-13 30c-8 18 -33 44 -64 44c-28 0 -56 -20 -56 -56c0 -45 41 -95 70 -126l89 -95c52 -56 99 -101 99 -177c0 -78 -66 -154 -153 -159
l30 -31c29 -30 71 -87 71 -159c0 -108 -85 -166 -159 -166s-157 67 -157 133c0 29 16 47 32 47c25 0 33 -22 44 -40l23 -36c25 -39 54 -41 64 -41c22 0 66 10 66 56c0 41 -49 102 -70 126l-74 84c-63 71 -101 123 -101 189c0 82 61 117 117 177zM220 163c24 21 64 72 64 114
c0 47 -61 109 -98 140c-36 -24 -66 -70 -66 -107c0 -48 63 -114 100 -147z" />
    <glyph glyph-name="afii10023" unicode="&#x401;" horiz-adv-x="550" 
d="M168 323l-1 -192c86 61 161 113 254 146l70 25c16 6 26 13 49 13c19 0 33 -9 33 -18c0 -7 -1 -22 -32 -39l-32 -18c-323 -182 -361 -244 -406 -244c-18 0 -45 10 -44 44l7 217c3 91 4 296 12 394l3 37c1 16 9 80 100 62c125 60 195 82 267 107l63 22c8 3 35 11 43 11
c7 0 18 -2 25 -16c14 -26 -7 -36 -37 -49l-37 -16c-73 -32 -122 -34 -333 -173c-7 -93 -9 -143 -6 -207c99 70 202 124 288 163l31 14c53 24 75 -22 31 -55l-21 -16c-71 -54 -153 -90 -211 -131zM422 1077c0 -27 -21 -157 -53 -157c-43 0 -40 49 -40 67c0 58 2 123 51 123
c19 0 42 -17 42 -33zM236 1055c0 -48 -5 -112 -52 -112c-36 0 -44 37 -44 83c0 54 32 80 50 80c45 0 46 -29 46 -51z" />
    <glyph glyph-name="copyright" unicode="&#xa9;" horiz-adv-x="836" 
d="M758 446c0 -117 -168 -354 -394 -354c-179 0 -288 152 -288 273c0 69 61 257 128 294c38 21 180 47 221 47c176 0 333 -131 333 -260zM170 376c0 -161 138 -190 235 -190c149 0 273 146 273 250c0 91 -118 192 -296 192c-84 0 -212 -49 -212 -252zM326 379
c0 -62 42 -77 100 -77h8c13 -1 18 -3 24 -3c13 0 16 9 27 9c16 0 28 -14 28 -26c0 -24 -84 -60 -149 -60c-60 0 -126 74 -126 147c0 95 111 219 180 219c22 0 69 -32 69 -69c0 -14 -2 -15 -12 -15c-6 0 -12 1 -17 2c-8 1 -16 2 -24 2c-71 0 -108 -77 -108 -129z" />
    <glyph glyph-name="afii10053" unicode="&#x404;" 
d="M637 244c-18 -76 -124 -236 -312 -236c-199 0 -284 166 -284 341c0 260 191 465 385 465c80 0 150 -29 150 -68c0 -14 -5 -36 -28 -36c-46 0 -40 12 -106 12c-135 0 -257 -112 -275 -275l61 29c76 36 167 69 189 77l47 17c15 5 49 8 49 -17c0 -28 -10 -29 -29 -39
l-35 -19c-160 -87 -107 -51 -183 -91l-99 -52c4 -144 109 -228 211 -228c111 0 180 88 205 115c16 17 21 31 34 31c10 0 21 -6 21 -17c0 -3 0 -6 -1 -9z" />
    <glyph glyph-name="guillemotleft" unicode="&#xab;" horiz-adv-x="656" 
d="M478 602l23 30c8 10 28 20 42 20c17 0 21 -18 21 -28c0 -42 -112 -152 -150 -219c172 -91 192 -185 192 -229c0 -5 1 -14 -6 -14c-11 0 -21 10 -46 40l-14 17c-8 10 -22 15 -59 33l-29 14c-39 19 -56 26 -100 42l-22 8c-34 13 -36 30 -36 40c0 70 60 112 84 132l24 20
c26 21 47 56 76 94zM369 204l31 -22c37 -31 12 -63 -1 -63c-5 0 -40 -21 -211 97c-101 72 -134 108 -138 136c-1 4 -1 7 0 11c5 35 78 96 143 168c81 93 114 153 157 153c26 0 38 -27 38 -39c0 -33 -137 -192 -184 -243c-18 -18 -13 -48 2 -68c74 -74 123 -102 163 -130z
" />
    <glyph glyph-name="logicalnot" unicode="&#xac;" horiz-adv-x="731" 
d="M623 288c-13 0 -20 -2 -23 11c-1 6 -1 11 0 16c0 4 1 7 1 11c0 32 -43 32 -74 18c-110 -28 -209 -43 -420 -76c-34 -7 -60 -5 -69 29c-8 35 17 45 59 49c335 65 367 84 498 90c87 -7 99 -76 99 -105c0 -25 -38 -43 -71 -43z" />
    <glyph glyph-name="hyphen" unicode="-" horiz-adv-x="492" 
d="M191 386l34 9c30 8 98 22 133 22c32 0 97 -9 97 -35c0 -38 -54 -41 -91 -51l-34 -9c-20 -5 -40 -13 -59 -21c-20 -9 -39 -18 -60 -23l-49 -11c-114 -26 -125 16 -125 36c0 50 106 70 154 83z" />
    <glyph glyph-name="registered" unicode="&#xae;" horiz-adv-x="926" 
d="M124 569c0 239 116 341 349 341c177 0 333 -133 333 -260c0 -117 -168 -354 -394 -354c-179 0 -288 152 -288 273zM393 649c22 29 52 29 52 51c0 11 -46 -10 -55 -15c0 -7 0 -14 3 -36zM400 527v-22c0 -94 -53 -78 -73 -78c-22 0 -23 65 -20 91c1 7 2 11 2 21
c0 4 1 26 -5 86c-12 -1 -35 -2 -41 -2c-5 0 -10 2 -36 9c-54 -135 76 -242 226 -242c149 0 273 148 273 250c0 91 -114 198 -289 198c-140 0 -187 -106 -200 -182l22 18c76 62 133 98 233 98c43 0 69 -5 69 -41c0 -52 -66 -93 -108 -132c58 -24 175 -42 175 -89
c0 -14 -38 -47 -58 -47c-49 0 -83 68 -170 64z" />
    <glyph glyph-name="degree" unicode="&#xb0;" horiz-adv-x="336" 
d="M307 725c0 -88 -74 -166 -144 -166c-40 0 -115 41 -115 134c0 77 66 170 123 170c34 0 136 -28 136 -138zM242 717c0 58 -34 88 -51 88c-19 0 -42 -37 -42 -80c0 -35 27 -68 49 -68c18 0 44 18 44 60z" />
    <glyph glyph-name="plusminus" unicode="&#xb1;" horiz-adv-x="552" 
d="M334 533l43 16c28 10 54 23 90 32l23 6c41 11 47 -8 47 -18c0 -15 -17 -22 -29 -28l-14 -7c-42 -21 -115 -55 -156 -73c-6 -25 -7 -39 -8 -62l-4 -64c-3 -53 -29 -61 -47 -61c-47 0 -58 82 -61 129l-44 -20c-76 -34 -97 -37 -105 -37c-18 0 -29 13 -29 26
c0 22 20 33 30 38l53 26c18 9 70 38 95 52l5 41c9 76 16 191 69 191c13 0 44 -10 44 -52c0 -27 -2 -37 -2 -85v-50zM325 273l53 21c16 6 76 27 89 30l23 6c41 11 47 -8 47 -18c0 -15 -17 -22 -29 -28l-14 -7c-121 -60 -281 -133 -320 -151c-12 -5 -82 -37 -105 -37
c-18 0 -29 13 -29 26c0 22 20 33 30 38l70 38c52 28 102 55 185 82z" />
    <glyph glyph-name="afii10055" unicode="&#x406;" horiz-adv-x="266" 
d="M88 618l2 46c4 81 50 91 65 91c26 0 60 -15 60 -60c0 -92 -48 -483 -19 -606l4 -17c15 -63 -29 -91 -66 -91c-62 0 -68 70 -68 151c0 113 9 193 22 486z" />
    <glyph glyph-name="afii10103" unicode="&#x456;" horiz-adv-x="202" 
d="M174 689l-33 -29c-15 -13 -35 -29 -62 -29c-23 0 -47 17 -47 45c0 49 52 56 83 67l26 9c36 12 43 28 63 28c21 0 28 -19 28 -28c0 -17 -22 -32 -58 -63zM56 226l12 159c2 30 11 92 60 92c32 0 35 -26 35 -49c0 -57 -17 -157 -17 -253c0 -116 10 -7 10 -125
c0 -43 -35 -55 -52 -55c-55 0 -56 60 -56 85c0 55 4 99 8 146z" />
    <glyph glyph-name="afii10098" unicode="&#x491;" horiz-adv-x="300" 
d="M50 462l45 19c71 30 169 59 244 76c3 26 20 56 41 56c10 0 33 2 33 -28c0 -98 -155 -123 -260 -166c19 -168 21 -259 21 -319c0 -59 8 -149 -40 -149c-82 0 -56 179 -62 329l-4 108l-15 -7c-30 -14 -52 1 -52 23c0 36 25 48 49 58z" />
    <glyph glyph-name="paragraph" unicode="&#xb6;" horiz-adv-x="619" 
d="M523 757l-11 -79c-9 -67 -11 -62 -29 -252c-6 -69 -13 -138 -19 -207c-4 -49 -8 -98 -12 -146c-7 -82 -31 -356 -59 -356c-9 0 -20 37 -20 87c0 62 -5 231 55 930l7 82c4 42 33 52 48 52c63 0 46 -70 40 -111zM326 801l-10 -81c-34 -273 -50 -500 -63 -647
c-17 -191 -37 -356 -61 -356c-29 0 -17 155 -17 196c0 254 28 454 52 729c-98 28 -137 97 -137 146c0 48 48 107 149 107c103 0 95 -30 87 -94z" />
    <glyph glyph-name="periodcentered" unicode="&#xb7;" horiz-adv-x="303" 
d="M90 296c0 28 49 61 83 61c24 0 40 -22 40 -48c0 -34 -36 -60 -65 -60c-25 0 -58 25 -58 47z" />
    <glyph glyph-name="afii10071" unicode="&#x451;" horiz-adv-x="374" 
d="M255 599c0 38 -2 100 41 100c15 0 35 -10 35 -35c0 -34 -26 -120 -48 -120c-28 0 -28 32 -28 55zM207 639c0 -74 -24 -91 -42 -91c-34 0 -36 35 -36 66c0 27 14 63 41 65h3c10 -1 34 -16 34 -40zM414 96l-44 -33c-11 -8 -85 -63 -172 -63c-103 0 -166 70 -166 199
c0 161 128 274 220 274c25 0 78 -7 78 -62c0 -34 -11 -116 -201 -265c10 -40 40 -71 88 -71c42 0 107 23 157 50l30 16c8 5 37 19 37 -8c0 -16 -17 -30 -27 -37zM118 217c37 31 136 126 136 160c0 13 -9 12 -20 12c-52 0 -114 -89 -116 -172z" />
    <glyph glyph-name="numero" unicode="&#x2116;" horiz-adv-x="1043" 
d="M195 715l2 -17c8 -68 111 -199 147 -259l56 -92c60 -98 84 -147 151 -210c-3 328 -10 436 -10 533v76c0 59 36 81 63 81c62 0 44 -102 43 -182l-5 -517c0 -44 7 -63 18 -91c9 -22 15 -40 15 -56c0 -30 -46 -50 -69 -50c-63 0 -226 232 -251 272l-49 80
c-41 67 -81 127 -120 181c-17 -150 -13 -232 -13 -270c0 -118 31 -112 31 -125c0 -30 -40 -66 -80 -66c-86 0 -67 123 -63 149c5 32 11 112 12 157l6 370c0 18 4 75 78 75c36 0 36 -19 38 -39zM970 525c0 -88 -74 -166 -144 -166c-40 0 -115 41 -115 134
c0 77 66 170 123 170c34 0 136 -28 136 -138zM905 517c0 58 -34 88 -51 88c-19 0 -42 -37 -42 -80c0 -35 27 -68 49 -68c18 0 44 18 44 60zM819 278l34 9c30 8 98 22 133 22c32 0 97 -9 97 -35c0 -38 -54 -41 -91 -51l-34 -9c-20 -5 -39 -13 -59 -21c-21 -8 -42 -15 -63 -21
c-101 -27 -125 12 -125 36c0 38 62 58 108 70z" />
    <glyph glyph-name="afii10101" unicode="&#x454;" horiz-adv-x="407" 
d="M404 63c-22 -20 -84 -70 -192 -70c-116 0 -189 106 -189 211c0 176 153 304 262 304c57 0 84 -41 84 -75c0 -24 -16 -27 -23 -27c-8 0 -15 6 -22 9c-8 4 -17 6 -26 6c-72 0 -156 -73 -171 -160l30 9c84 25 178 36 199 39l25 3c27 3 40 -6 40 -19c0 -26 -15 -22 -32 -29
l-14 -6c-26 -11 -169 -50 -195 -56c-19 -4 -26 -6 -54 -13c11 -77 70 -118 145 -118c39 0 63 13 89 27c16 9 27 16 39 16c22 0 25 -14 25 -21c0 -12 -11 -22 -20 -30z" />
    <glyph glyph-name="guillemotright" unicode="&#xbb;" horiz-adv-x="660" 
d="M450 412l-32 21c-127 83 -154 113 -164 129c-1 3 -2 11 -2 18c0 24 35 66 90 40c42 -9 60 -48 232 -166c36 -27 50 -78 20 -110l-52 -55c-112 -118 -112 -123 -127 -138l-9 -9c-23 -33 -47 -61 -56 -29c-7 25 2 42 16 57c50 82 76 121 106 162c24 30 8 64 -22 80z
M245 490l81 -60c13 -10 42 -26 42 -46c0 -12 -11 -25 -20 -37l-34 -46c-27 -37 -99 -130 -116 -151l-24 -30c-30 -37 -42 -47 -53 -47c-7 0 -17 6 -17 13c0 13 10 29 20 48l10 18c34 62 70 121 118 188c-182 123 -202 160 -202 174c0 24 22 62 55 62c30 0 68 -33 140 -86z
" />
    <glyph glyph-name="afii10105" unicode="&#x458;" horiz-adv-x="244" 
d="M53 491l39 11c32 9 47 19 61 19c18 0 46 -8 46 -50c0 -68 -16 -16 -16 -146c0 -108 15 -248 15 -370c0 -243 -148 -295 -279 -295c-63 0 -204 32 -204 90c0 18 13 39 43 39c25 0 44 -11 67 -23c34 -17 68 -26 99 -26c70 0 175 29 175 188c0 30 0 74 -11 488
c-47 -24 -90 -6 -90 26c0 35 27 41 55 49zM62 725c12 12 29 20 46 20c60 0 73 -46 73 -68c0 -24 -23 -47 -59 -47c-52 0 -76 32 -76 58c0 13 6 27 16 37z" />
    <glyph glyph-name="afii10054" unicode="&#x405;" horiz-adv-x="555" 
d="M260 576l28 -14c117 -58 248 -128 248 -266c0 -257 -417 -301 -511 -301c-9 0 -27 1 -27 20c0 33 109 33 141 39c130 27 281 80 281 202c0 47 -32 111 -112 157l-105 61c-72 42 -163 77 -163 154c0 116 229 247 355 247c10 0 36 -3 36 -41s-27 -46 -43 -49l-22 -4
c-117 -21 -193 -90 -193 -130c0 -36 59 -61 87 -75z" />
    <glyph glyph-name="afii10102" unicode="&#x455;" horiz-adv-x="349" 
d="M189 183l-49 30c-88 54 -108 115 -108 159c0 101 135 159 199 159c40 0 51 -25 51 -44c0 -31 -34 -40 -72 -53c-36 -12 -82 -24 -82 -60c0 -24 24 -52 51 -69l53 -33c57 -36 112 -69 112 -116c0 -86 -171 -218 -317 -218c-31 0 -34 17 -34 24c0 19 20 24 35 28l43 13
c93 28 177 88 177 127c0 23 -35 38 -59 53z" />
    <glyph glyph-name="afii10017" unicode="&#x410;" horiz-adv-x="652" 
d="M245 244l-57 -32c-29 -117 -6 -206 -100 -206c-8 0 -45 10 -45 71c0 23 10 72 197 605c24 67 44 166 112 166c73 0 117 -178 144 -254l36 -102c260 109 274 118 289 118c17 0 22 -11 22 -20c0 -28 -71 -43 -291 -165l33 -110c65 -216 76 -236 76 -256
c0 -33 -35 -68 -67 -68c-84 0 -100 189 -125 272l-30 102c-50 -33 -137 -89 -194 -121zM220 325l53 29c92 51 133 78 146 86c-49 148 -61 222 -79 222c-23 0 -65 -175 -120 -337z" />
    <glyph glyph-name="afii10018" unicode="&#x411;" horiz-adv-x="595" 
d="M97 41l-1 595c-70 -42 -85 -47 -94 -47c-21 0 -38 15 -38 39c0 25 17 36 34 46l89 54c49 30 214 117 349 117c48 0 78 -14 78 -30c0 -51 -50 -61 -72 -65l-92 -18c-47 -9 -122 -38 -163 -56c11 -77 12 -151 7 -223c77 51 188 91 252 91c76 0 126 -49 126 -128
c0 -153 -317 -469 -419 -469c-52 0 -56 49 -56 94zM192 342l-3 -279c98 72 280 215 280 338c0 36 -17 40 -49 40c-87 0 -174 -56 -228 -99z" />
    <glyph glyph-name="afii10019" unicode="&#x412;" horiz-adv-x="582" 
d="M101 23l-12 598c-76 -52 -93 -62 -105 -62c-17 0 -32 16 -32 38c0 81 386 266 447 266c56 0 78 -36 78 -77c0 -76 -55 -152 -143 -256c34 16 90 37 125 37c60 0 106 -48 106 -128c0 -155 -295 -504 -412 -504c-49 0 -51 46 -52 88zM182 678l6 -214c72 73 192 210 192 267
c0 20 -2 32 -26 32c-27 0 -148 -71 -172 -85zM189 335l3 -280c190 167 271 273 271 358c0 9 0 46 -49 46c-76 0 -179 -79 -225 -124z" />
    <glyph glyph-name="afii10020" unicode="&#x413;" horiz-adv-x="405" 
d="M529 815l-37 -16c-175 -76 -239 -105 -303 -163c-8 -113 -15 -276 -5 -401l7 -87c4 -47 25 -149 -69 -149c-47 0 -46 47 -45 71l4 161c8 314 13 262 12 381c-14 10 -47 47 -47 63c0 14 28 31 48 36c-2 59 25 70 47 70c19 0 43 -15 57 -31c67 33 139 63 237 97l55 19
c15 5 41 13 50 13c20 0 30 -15 30 -28c0 -8 -8 -22 -41 -36z" />
    <glyph glyph-name="afii10021" unicode="&#x414;" horiz-adv-x="591" 
d="M425 599l99 -276c18 -51 42 -126 53 -160l65 7c59 6 87 -8 87 -24c0 -38 -75 -43 -126 -50c20 -52 -27 -96 -59 -96c-21 0 -60 11 -71 66c-319 -64 -335 -91 -462 -111l-57 -9c-70 -11 -72 26 -72 37c0 30 42 37 62 41c26 5 39 8 50 12c-12 47 0 80 127 497
c41 134 67 315 151 315c66 0 115 -143 153 -249zM116 110l-5 -47c70 18 187 46 339 76c-20 60 -23 72 -41 128l-56 175c-62 193 -76 219 -86 219c-27 0 -106 -327 -109 -341l-28 -114c-7 -29 -10 -58 -14 -96z" />
    <glyph glyph-name="afii10022" unicode="&#x415;" horiz-adv-x="563" 
d="M175 185l2 -60c81 63 147 127 236 177l106 60c13 7 47 25 61 25c18 0 28 -13 28 -27c0 -19 -18 -29 -32 -39l-30 -21c-68 -48 -196 -148 -360 -272l-37 -28c-38 -29 -73 -12 -74 39l-4 209c-1 46 -2 93 -2 139c0 59 1 119 0 178c-1 43 -3 85 -3 129c0 39 5 95 60 95
c16 0 28 -4 37 -24c110 33 149 42 239 85l53 25c20 9 34 13 46 13c23 0 33 -14 33 -24c0 -24 -22 -35 -37 -43l-53 -27c-18 -9 -37 -17 -56 -26c-15 -7 -29 -14 -44 -21c-14 -7 -29 -15 -43 -22c-45 -23 -90 -44 -135 -66l-3 -47c-4 -67 -2 -139 1 -189
c80 56 181 125 278 176l32 17c9 5 19 11 32 11c10 0 22 -6 22 -24c0 -20 -11 -33 -21 -41l-21 -17c-107 -87 -55 -32 -203 -143l-113 -85c0 -16 1 -33 1 -49v-20c1 -36 3 -22 4 -63z" />
    <glyph glyph-name="afii10024" unicode="&#x416;" horiz-adv-x="809" 
d="M440 734l13 -272c36 43 95 118 182 242l45 64c27 39 84 31 84 -11c0 -57 -170 -272 -238 -344c187 -69 308 -218 354 -282l29 -41c42 -59 -3 -99 -30 -99c-36 0 -58 41 -93 82l-63 73c-92 106 -189 157 -266 183c17 -229 25 -178 25 -245c0 -24 2 -98 -88 -98
c-49 0 -50 42 -57 345c-133 -53 -210 -164 -248 -242l-20 -41c-13 -27 -26 -68 -63 -68c-21 0 -51 17 -51 64c0 107 158 293 297 355c-82 58 -183 215 -183 304c0 43 34 56 58 56c49 0 60 -60 68 -86c19 -63 68 -152 142 -220l-6 245c0 19 -1 87 54 87c17 0 53 -2 55 -51z
" />
    <glyph glyph-name="afii10025" unicode="&#x417;" horiz-adv-x="508" 
d="M232 33l-71 -58c-98 -80 -155 -4 -153 30c1 30 28 34 45 38c114 24 352 263 352 366c0 31 -19 49 -67 49c-44 0 -111 -34 -152 -72l-23 -21c-9 -8 -29 -24 -52 -24c-41 0 -51 53 -27 78l38 40c173 182 209 237 209 269c0 20 -3 33 -25 33c-35 0 -208 -98 -230 -111
l-34 -20c-40 -24 -61 -4 -61 27c0 26 18 38 34 48l68 43c64 40 196 111 271 111c57 0 75 -38 75 -79c0 -86 -72 -164 -151 -251c35 16 90 32 126 32c61 0 108 -44 108 -108c0 -168 -211 -363 -280 -420z" />
    <glyph glyph-name="afii10026" unicode="&#x418;" horiz-adv-x="692" 
d="M202 55l-1 -18c-1 -17 1 -40 -37 -40c-73 0 -79 56 -80 72l-19 370c-2 45 -11 119 -18 156c-4 24 -27 152 58 152c33 0 75 -13 75 -73c0 -25 -6 -49 -6 -101c0 -80 13 -169 20 -318c56 93 81 133 101 169l46 82c67 120 206 289 266 289c14 0 38 -4 38 -18
c0 -24 -7 -61 -24 -78l29 -576c3 -59 14 -148 -42 -148c-14 0 -56 1 -65 79l-7 59c-13 113 -10 230 -17 494c-53 -56 -74 -103 -126 -195l-53 -94c-30 -53 -134 -199 -138 -263z" />
    <glyph glyph-name="afii10027" unicode="&#x419;" horiz-adv-x="672" 
d="M181 60l-2 -18c-2 -18 0 -38 -38 -38c-53 0 -77 30 -78 74l-6 371c-1 34 -6 115 -12 156c-5 31 -23 150 63 150c52 0 66 -6 72 -495c35 86 70 116 107 166l63 84c165 221 200 270 233 270c43 0 42 -35 41 -64c-17 -424 13 -187 7 -603c-1 -61 9 -147 -47 -147
c-11 0 -58 3 -63 81l-4 59c-11 161 -2 109 0 495c-87 -139 -110 -171 -119 -184l-70 -99c-110 -155 -143 -223 -147 -258zM415 798c-29 -15 -61 -25 -93 -25c-74 0 -103 50 -103 87c0 27 27 39 48 39c36 0 64 -22 93 -22c21 0 44 20 69 36c24 15 61 36 88 36
c20 0 30 -12 30 -22c0 -28 -84 -104 -132 -129z" />
    <glyph glyph-name="afii10028" unicode="&#x41a;" horiz-adv-x="584" 
d="M179 734l13 -272c155 179 155 206 187 250l40 56c27 38 84 32 84 -11c0 -74 -196 -301 -238 -344c218 -81 397 -297 397 -376c0 -36 -24 -46 -44 -46c-39 0 -54 42 -91 81l-65 69c-64 68 -130 118 -266 188c17 -229 25 -178 25 -245c0 -24 2 -98 -88 -98
c-59 0 -54 45 -60 492l-3 220c0 19 -2 87 54 87c17 0 53 -2 55 -51z" />
    <glyph glyph-name="afii10029" unicode="&#x41b;" horiz-adv-x="557" 
d="M71 387l87 273c22 70 42 185 107 185c56 0 87 -83 149 -254l97 -269c72 -201 84 -234 84 -258c0 -40 -30 -61 -60 -61c-52 0 -63 56 -72 85l-28 86c-28 87 -107 320 -138 398c-27 68 -38 81 -44 81c-11 0 -28 -18 -60 -150c-43 -176 -64 -251 -79 -331l-17 -91
c-4 -20 -9 -81 -70 -81c-16 0 -44 14 -44 67c0 42 64 244 88 320z" />
    <glyph glyph-name="afii10030" unicode="&#x41c;" horiz-adv-x="811" 
d="M212 753l228 -296c143 200 186 237 197 270l11 34c26 80 61 96 82 96c26 0 51 -25 51 -69c0 -103 -38 -235 -38 -417c0 -181 22 -198 22 -269c0 -63 -39 -82 -69 -82c-67 0 -68 114 -68 192c0 136 25 241 16 411c-68 -58 -150 -306 -228 -306c-47 0 -83 139 -228 277
c-8 -84 -16 -133 -16 -405c0 -93 10 -99 10 -131c0 -27 -32 -59 -64 -59c-20 0 -58 10 -58 87c0 42 3 80 6 125c2 42 9 167 10 239l3 224c1 46 8 125 80 125c34 0 39 -16 45 -29z" />
    <glyph glyph-name="afii10031" unicode="&#x41d;" horiz-adv-x="632" 
d="M177 406l101 45c55 25 97 35 170 85c0 232 21 284 71 284c38 0 52 -20 52 -53c0 -24 -6 -46 -10 -68c-4 -23 -4 -47 -6 -71l-4 -44c25 6 47 -9 47 -25c0 -14 -17 -35 -37 -43c9 -206 9 -199 13 -260c6 -110 7 -126 7 -140c0 -84 -43 -96 -66 -96c-24 0 -64 17 -65 106
l-2 204c0 40 6 56 -1 114c-63 -20 -197 -99 -260 -142c-12 -53 16 -50 16 -233c0 -17 0 -73 -68 -73c-40 0 -52 24 -52 67c0 13 2 26 2 38c0 100 -20 86 -20 301c0 115 -23 350 83 350c21 0 43 -17 43 -69c0 -177 -13 -43 -14 -277z" />
    <glyph glyph-name="afii10032" unicode="&#x41e;" horiz-adv-x="672" 
d="M293 782l6 -5c21 -18 44 11 97 11c114 0 241 -126 241 -331c0 -286 -193 -453 -353 -453c-191 0 -249 221 -249 351c0 165 128 438 223 438c11 0 27 -4 35 -11zM315 701l-8 -10c-4 -6 -14 -8 -22 -8c-7 0 -22 3 -32 6c-78 -110 -104 -224 -104 -304
c0 -118 46 -268 164 -268c125 0 234 135 234 310c0 166 -90 289 -191 289c-21 0 -35 -8 -41 -15z" />
    <glyph glyph-name="afii10033" unicode="&#x41f;" horiz-adv-x="637" 
d="M-102 612l73 31c408 173 578 194 652 194c6 0 38 5 38 -13c0 -7 -4 -16 -17 -20l-43 -12l-56 -17c28 -12 33 -36 35 -52c1 -13 1 -27 0 -40c-1 -24 -1 -49 -1 -73c0 -389 -3 -374 25 -493l4 -17c18 -77 -35 -95 -58 -95c-86 0 -87 159 -87 634v46c0 23 1 40 7 64
c-115 -40 -181 -65 -278 -108c8 -95 17 -248 17 -332c0 -125 6 -326 -71 -326c-79 0 -46 239 -46 354v264c-49 -19 -70 -31 -109 -50l-60 -30c-47 -23 -73 11 -73 36c0 33 27 46 48 55z" />
    <glyph glyph-name="afii10034" unicode="&#x420;" horiz-adv-x="505" 
d="M37 679l112 85c99 75 260 141 371 141c74 0 101 -45 101 -96c0 -137 -256 -355 -426 -453c2 -119 0 -160 0 -207c0 -33 2 -49 5 -68c2 -15 6 -30 6 -44c0 -15 -5 -42 -51 -42c-37 0 -68 15 -68 80c0 66 12 88 12 135v34c0 35 0 39 -2 58c-2 12 -3 22 -3 43
c-11 9 -19 23 -19 35c0 8 2 25 21 36l3 222c-24 -20 -42 -26 -57 -26c-17 0 -27 10 -27 27c0 23 10 31 22 40zM198 468c135 82 323 252 323 330c0 27 -20 30 -34 30c-39 0 -138 -16 -280 -133c-5 -41 -13 -115 -9 -227z" />
    <glyph glyph-name="afii10035" unicode="&#x421;" 
d="M637 244c-18 -76 -124 -236 -312 -236c-199 0 -284 166 -284 341c0 260 191 465 385 465c80 0 150 -29 150 -68c0 -14 -5 -36 -28 -36c-46 0 -40 12 -106 12c-150 0 -277 -132 -277 -328c0 -243 161 -270 213 -270c111 0 181 88 205 115c16 17 21 31 34 31
c10 0 21 -6 21 -17c0 -3 0 -6 -1 -9z" />
    <glyph glyph-name="afii10036" unicode="&#x422;" horiz-adv-x="502" 
d="M-62 638l73 31c502 213 582 233 732 233c6 0 38 5 38 -13c0 -7 -4 -16 -17 -20l-43 -12c-111 -31 -302 -104 -409 -151c12 -268 13 -347 13 -379c0 -79 17 -318 -66 -318c-79 0 -47 235 -47 393v264c-81 -32 -124 -57 -189 -89l-60 -30c-47 -23 -73 11 -73 36
c0 33 27 46 48 55z" />
    <glyph glyph-name="afii10037" unicode="&#x423;" horiz-adv-x="446" 
d="M130 706l46 -76c36 -59 42 -85 94 -146c9 27 17 54 25 81c13 44 23 88 37 132l28 87c7 21 13 46 43 46c27 0 39 -11 39 -40c0 -14 -5 -37 -69 -286l-31 -120c7 -8 17 -28 17 -40s-14 -26 -28 -32c-24 -41 -61 -109 -112 -274l-42 -135c-9 -29 -18 -57 -51 -69
c-30 -11 -33 20 -21 57l52 165c9 28 21 74 71 286l-54 80c-137 203 -160 246 -160 266s15 59 60 59c30 0 41 -16 56 -41z" />
    <glyph glyph-name="afii10038" unicode="&#x424;" horiz-adv-x="769" 
d="M443 78l4 -24c5 -28 16 -74 -47 -74c-37 0 -68 15 -68 80c0 21 3 11 8 96c-84 -31 -145 -46 -205 -46c-108 0 -156 63 -156 167c0 167 179 311 366 376l-2 51l-4 24c-5 28 -16 74 47 74c56 0 64 -38 64 -48c0 -9 0 -19 -3 -67c79 33 160 45 218 45
c117 0 141 -74 141 -136c0 -143 -154 -323 -366 -413c-1 -22 -1 -80 3 -105zM344 437l2 122c-230 -104 -266 -218 -266 -275c0 -36 20 -78 83 -78c57 0 134 26 177 44c1 58 2 120 4 187zM441 288c188 93 265 222 265 297c0 22 -5 57 -67 57s-129 -25 -194 -53
c1 -105 -1 -205 -4 -301z" />
    <glyph glyph-name="afii10039" unicode="&#x425;" horiz-adv-x="433" 
d="M174 407l-62 134c-80 173 -97 204 -97 232c0 33 25 50 53 50c38 0 46 -21 57 -49l19 -49c27 -70 49 -122 84 -192c78 122 81 148 125 214l16 24c25 38 70 6 57 -23l-60 -131c-35 -76 -46 -108 -92 -193c123 -296 154 -352 154 -387c0 -32 -26 -46 -44 -46
c-49 0 -86 131 -121 206l-47 101l-32 -64c-118 -236 -156 -320 -182 -320c-8 0 -13 6 -13 25c0 65 133 363 185 468z" />
    <glyph glyph-name="afii10040" unicode="&#x426;" horiz-adv-x="684" 
d="M620 210l31 14c54 24 83 -15 83 -77c0 -41 -21 -80 -39 -131l-30 -85c-10 -28 -29 -41 -44 -41c-9 0 -33 6 -33 47s16 79 43 181c-329 -130 -453 -145 -505 -145c-32 0 -71 2 -74 80c-1 18 0 37 0 55c1 24 2 49 2 73c1 52 1 104 1 156c0 140 8 196 -14 292l-4 17
c-16 68 26 94 60 94c63 0 72 -64 72 -149c0 -58 -1 -119 -1 -179c0 -88 4 -175 2 -262l-2 -86c48 11 148 36 268 87c-9 223 -8 294 -8 317c0 91 -4 325 76 325c42 0 41 -43 41 -71c0 -201 3 -77 -1 -284l-5 -264c46 16 49 21 81 36z" />
    <glyph glyph-name="afii10041" unicode="&#x427;" horiz-adv-x="594" 
d="M412 96l-3 266c-67 -42 -144 -68 -204 -68c-158 0 -183 120 -183 296c0 40 7 128 75 128c58 0 42 -80 39 -133l-3 -62c-5 -105 44 -128 93 -128c58 0 139 48 182 80c8 252 16 315 73 315c38 0 52 -20 52 -53c0 -24 -6 -46 -10 -68c-4 -23 -4 -47 -6 -71l-4 -44
c32 7 47 -14 47 -25c0 -26 -19 -71 -35 -89c7 -202 7 -178 11 -230c3 -35 7 -100 7 -124c0 -74 -35 -96 -66 -96c-61 0 -65 79 -65 106z" />
    <glyph glyph-name="afii10042" unicode="&#x428;" horiz-adv-x="899" 
d="M501 708l11 -50c12 -56 16 -344 14 -465c122 38 116 42 205 66c-3 72 1 94 0 143c-2 245 -28 262 -28 320c0 48 37 63 59 63c105 0 83 -249 85 -379l3 -198c2 -115 -27 -127 -65 -127c-40 0 -51 35 -51 60c-119 -21 -136 -41 -364 -92c-162 -37 -137 -48 -214 -48
c-69 0 -79 20 -75 130l2 61c2 50 -8 244 -16 302l-11 78c-9 64 -26 193 44 193c32 0 76 -17 81 -109l10 -176c8 -139 8 -263 5 -374c122 27 170 39 231 60c-11 252 -16 311 -21 346l-10 76c-9 71 -19 90 -19 114c0 26 17 65 59 65c49 0 58 -29 65 -59z" />
    <glyph glyph-name="afii10043" unicode="&#x429;" horiz-adv-x="997" 
d="M501 708l11 -50c12 -56 16 -344 14 -465c122 38 116 42 205 66c-3 72 1 94 0 143c-2 245 -28 262 -28 320c0 48 37 63 59 63c104 0 84 -249 85 -379l1 -120l73 23c15 5 75 27 75 -63c0 -10 -1 -49 -49 -148l-50 -103c-10 -20 -31 -51 -48 -51c-14 0 -31 22 -31 52
c0 43 54 173 70 206c-191 -77 -443 -136 -518 -153c-161 -37 -138 -48 -214 -48c-69 0 -79 20 -75 130l2 61c2 50 -8 244 -16 302l-11 78c-9 64 -26 193 44 193c32 0 76 -17 81 -109l10 -176c8 -139 8 -263 5 -374c122 27 170 39 231 60c-11 252 -16 311 -21 346l-10 76
c-9 71 -19 90 -19 114c0 26 17 65 59 65c49 0 58 -29 65 -59z" />
    <glyph glyph-name="afii10044" unicode="&#x42a;" horiz-adv-x="644" 
d="M155 84l-7 597l-1 18c-53 -18 -72 -29 -113 -48l-61 -28c-43 -20 -72 9 -72 39c0 34 29 45 50 53l208 77c4 9 11 18 36 18c56 0 57 -69 56 -317c75 49 180 81 256 81c97 0 122 -75 122 -134c0 -136 -159 -300 -268 -373l-52 -35c-24 -16 -56 -44 -90 -44
c-66 0 -64 68 -64 96zM249 382l-2 -279c133 96 279 205 279 324c0 21 -4 48 -52 48c-81 0 -172 -53 -225 -93z" />
    <glyph glyph-name="afii10045" unicode="&#x42b;" horiz-adv-x="787" 
d="M88 75l-39 596c-3 47 -18 132 41 132c64 0 61 -114 72 -314c73 42 184 74 252 74c96 0 128 -81 128 -148c0 -138 -133 -259 -248 -346l-50 -38c-25 -19 -52 -48 -88 -48c-65 0 -66 60 -68 92zM166 378l12 -279c133 92 262 190 262 298c0 56 -24 65 -54 65
c-64 0 -159 -43 -220 -84zM612 602l-6 79c-5 68 25 96 55 96c70 0 68 -66 67 -94v-73c6 -353 25 -454 34 -493l4 -17c18 -76 -31 -96 -56 -96c-46 0 -58 31 -66 78l-11 66c-21 126 -1 184 -21 454z" />
    <glyph glyph-name="afii10046" unicode="&#x42c;" horiz-adv-x="552" 
d="M76 81l-28 596c-2 49 -17 131 43 131c62 0 60 -102 67 -315c60 42 171 90 253 90c84 0 126 -56 126 -130c0 -138 -149 -303 -255 -382l-50 -37c-24 -17 -55 -47 -89 -47c-66 0 -66 64 -67 94zM160 382l7 -279c124 95 268 218 268 333c0 29 -10 46 -54 46
c-80 0 -171 -59 -221 -100z" />
    <glyph glyph-name="afii10047" unicode="&#x42d;" horiz-adv-x="624" 
d="M191 359l-49 -15c-73 -22 -83 12 -83 26c0 50 83 64 131 72c70 12 119 7 263 56c-30 98 -129 157 -210 157c-50 0 -98 -23 -129 -40c-33 -18 -48 -27 -64 -27c-18 0 -27 16 -27 31c0 54 163 135 265 135c138 0 253 -85 290 -220c53 9 65 -13 65 -28
c0 -26 -31 -50 -55 -58c0 -240 -186 -438 -410 -438c-136 0 -155 68 -155 98c0 18 10 35 43 35c57 0 44 -22 106 -22c128 0 282 94 288 290c-154 -36 -186 -26 -269 -52z" />
    <glyph glyph-name="afii10048" unicode="&#x42e;" horiz-adv-x="960" 
d="M182 406l176 77c32 161 129 292 173 292c14 0 22 -12 31 -18l18 -13c25 15 78 28 102 28c64 0 244 -38 244 -340c0 -216 -102 -433 -295 -433c-249 0 -293 251 -284 394c-53 -26 -105 -56 -155 -91c4 -183 16 -130 16 -233c0 -17 0 -73 -68 -73c-40 0 -52 24 -52 67
c0 13 2 26 2 38c0 100 -25 160 -25 404c0 127 -8 254 79 254c22 0 43 -17 43 -69c0 -40 -9 -52 -9 -111c0 -47 3 -145 4 -173zM574 121c21 -10 60 -18 81 -18c63 0 166 81 166 356c0 91 -35 240 -170 240c-82 0 -190 -70 -190 -307c0 -198 79 -255 113 -271z" />
    <glyph glyph-name="afii10049" unicode="&#x42f;" horiz-adv-x="593" 
d="M528 719l3 -201c22 -9 50 -33 50 -56s-20 -34 -47 -46c-4 -90 -1 -157 2 -275l1 -41c1 -49 9 -92 -53 -92c-29 0 -63 2 -63 33c0 18 10 29 15 38l6 10c4 7 5 15 5 23c0 39 -3 7 -6 84c-2 46 -6 141 -8 187c-129 -72 -235 -214 -281 -283l-52 -78c-20 -29 -23 -66 -64 -66
c-25 0 -49 15 -49 55c0 101 208 318 311 390c-31 -6 -58 -8 -84 -8c-143 0 -168 96 -168 146c0 116 104 279 446 279c32 0 117 1 117 -54c0 -14 -12 -42 -81 -45zM437 516l-3 196c-186 0 -281 -91 -281 -164c0 -62 60 -65 100 -65c63 0 120 10 184 33z" />
    <glyph glyph-name="afii10065" unicode="&#x430;" horiz-adv-x="501" 
d="M430 89v-18c0 -29 5 -90 -60 -90c-38 0 -55 32 -47 67c-65 -38 -131 -44 -158 -44c-65 0 -143 31 -143 110c0 126 162 223 315 195v66c0 38 -10 70 -69 70c-22 0 -70 -5 -139 -42c-59 -32 -69 5 -69 22c0 57 173 99 234 99c133 0 139 -111 139 -186v-164c9 6 25 12 34 12
c20 0 36 -16 36 -36c0 -31 -36 -46 -73 -61zM332 130v20c0 28 8 83 -75 83c-67 0 -136 -54 -136 -98c0 -22 16 -50 53 -50c31 0 101 12 158 45z" />
    <glyph glyph-name="afii10066" unicode="&#x431;" horiz-adv-x="477" 
d="M382 154c-60 -108 -154 -153 -232 -153c-109 0 -127 94 -127 153c0 82 51 217 240 340c-49 53 -116 114 -116 156c0 43 310 232 386 232c30 0 43 -23 43 -39c0 -38 -90 -70 -133 -93c-147 -79 -190 -102 -190 -123s63 -84 75 -95c28 16 41 24 53 24c18 0 37 -28 37 -53
c0 -12 -28 -29 -36 -34c20 -24 51 -69 51 -143c0 -54 -23 -122 -51 -172zM315 425c-152 -100 -186 -206 -186 -262c0 -50 21 -74 56 -74c89 0 161 159 161 247c0 35 -8 62 -31 89z" />
    <glyph glyph-name="afii10067" unicode="&#x432;" horiz-adv-x="484" 
d="M274 443c22 13 52 25 77 25c55 0 113 -39 113 -136c0 -142 -198 -343 -294 -343c-76 0 -130 85 -130 549c0 117 14 235 145 235c81 0 160 -53 160 -161c0 -55 -22 -119 -71 -169zM364 329c0 40 -23 48 -40 48c-89 0 -91 -140 -176 -102c-2 -82 13 -167 50 -167
c60 0 166 156 166 221zM146 302c16 35 38 66 67 93c-96 57 37 72 37 210c0 66 -31 81 -51 81c-87 0 -67 -241 -53 -384z" />
    <glyph glyph-name="afii10068" unicode="&#x433;" horiz-adv-x="296" 
d="M411 514l-30 -9c-52 -16 -176 -64 -228 -86c19 -168 21 -259 21 -319c0 -59 8 -149 -40 -149c-82 0 -56 179 -62 329l-4 108l-15 -7c-30 -14 -52 1 -52 23c0 36 25 48 49 58l45 19c131 55 236 80 298 80c11 0 33 3 33 -20c0 -10 -5 -24 -15 -27z" />
    <glyph glyph-name="afii10069" unicode="&#x434;" horiz-adv-x="464" 
d="M43 659l-27 -10c-49 -18 -64 4 -64 21c0 33 57 65 146 65c209 0 330 -228 330 -416c0 -193 -96 -320 -224 -320c-99 0 -179 97 -179 212c0 154 124 230 184 230c19 0 39 -7 39 -28c0 -14 -5 -21 -16 -26l-37 -19c-43 -22 -63 -87 -63 -127c0 -78 35 -138 90 -138
c77 0 119 99 119 212c0 194 -132 354 -240 354c-18 0 -41 -4 -58 -10z" />
    <glyph glyph-name="afii10070" unicode="&#x435;" horiz-adv-x="413" 
d="M425 94c-99 -77 -163 -90 -210 -90c-86 0 -183 42 -183 196c0 170 141 296 263 296c53 0 91 -30 91 -70c0 -52 -58 -129 -249 -268c5 -22 24 -71 94 -71c83 0 132 36 175 62c36 22 48 2 48 -19c0 -15 -16 -26 -29 -36zM234 331l30 29c18 18 28 27 28 34s-7 16 -24 16
c-48 0 -131 -69 -137 -164c72 60 87 69 103 85z" />
    <glyph glyph-name="afii10072" unicode="&#x436;" horiz-adv-x="669" 
d="M273 287l-4 61c-3 40 -6 55 -8 71c-5 54 26 63 41 63c21 0 45 1 49 -46c5 -58 -2 -8 7 -159c64 36 130 91 164 150l22 38c20 34 76 41 76 -8c0 -68 -95 -165 -177 -202c131 -11 216 -128 216 -222c0 -47 -35 -52 -49 -52c-34 0 -37 24 -40 38c-31 150 -146 170 -206 170
c6 -97 14 -117 14 -148c0 -23 -8 -61 -54 -61c-60 0 -53 54 -52 110l1 97c-81 -14 -150 -58 -158 -158c-2 -18 -2 -44 -35 -44c-29 0 -53 12 -53 52c0 132 111 185 169 202c-113 9 -166 120 -166 179c0 42 61 55 75 14l11 -32c22 -63 62 -112 157 -113z" />
    <glyph glyph-name="afii10073" unicode="&#x437;" horiz-adv-x="463" 
d="M35 444l43 20c39 18 83 40 141 40c62 0 100 -31 100 -87c0 -15 -2 -76 -85 -138c96 35 215 10 215 -142c0 -272 -374 -335 -489 -335c-8 0 -28 -2 -28 18c0 30 82 32 142 49c214 62 275 157 275 237c0 38 -11 107 -93 107c-28 0 -61 -10 -86 -23c-21 -11 -40 -25 -56 -25
c-14 0 -33 11 -33 35c0 22 13 29 24 40l38 37c58 56 79 81 79 108c0 17 -4 41 -42 41c-22 0 -59 -15 -81 -30l-31 -21c-33 -22 -73 -14 -73 21c0 27 21 39 40 48z" />
    <glyph glyph-name="afii10074" unicode="&#x438;" horiz-adv-x="452" 
d="M409 149l11 -47c6 -25 33 -120 -44 -120c-43 0 -56 65 -61 106c-30 -46 -83 -86 -137 -86c-118 0 -127 147 -128 272l-1 120c-1 96 39 98 54 98c36 0 49 3 49 -113v-131c0 -65 1 -150 68 -150c81 0 79 131 77 212l-2 79c-1 41 1 97 51 97c37 0 46 -34 46 -80v-81
c0 -39 -1 -98 17 -176z" />
    <glyph glyph-name="afii10075" unicode="&#x439;" horiz-adv-x="482" 
d="M437 167l12 -47c3 -13 27 -107 -42 -107c-25 0 -52 15 -62 84c-53 -61 -79 -101 -154 -101c-102 0 -141 121 -139 255l2 113c1 55 10 103 56 103c56 0 48 -56 45 -114l-5 -101c-5 -98 28 -158 81 -158c92 0 91 134 88 222l-3 79c-1 38 -2 103 46 103c46 0 42 -25 45 -82
l6 -99c4 -64 14 -110 24 -150zM278 536c-19 -11 -41 -21 -63 -21c-55 0 -91 37 -91 75c0 31 17 43 36 43c45 0 50 -25 78 -25c17 0 36 16 61 34c34 24 54 32 71 32c6 0 19 -1 19 -17c0 -29 -85 -106 -111 -121z" />
    <glyph glyph-name="afii10076" unicode="&#x43a;" horiz-adv-x="489" 
d="M343 430l30 41c26 35 75 38 75 0c0 -62 -88 -164 -213 -216c151 8 244 -113 244 -217c0 -47 -35 -52 -49 -52c-34 0 -37 24 -40 38c-25 115 -132 180 -242 159c4 -27 16 -116 16 -139c0 -48 -34 -64 -59 -64c-60 0 -52 54 -52 110c0 53 -4 196 -7 249c-2 25 -4 49 -4 74
v6c0 55 19 63 41 63c21 0 45 1 49 -46c5 -58 -2 -8 7 -159c119 50 176 115 204 153z" />
    <glyph glyph-name="afii10077" unicode="&#x43b;" horiz-adv-x="378" 
d="M280 39l-18 60c-13 44 -35 106 -86 251c-29 -66 -53 -135 -74 -214l-29 -108c-4 -16 -11 -36 -37 -36c-35 0 -23 42 -17 70l17 79c73 340 136 378 163 378c35 0 39 -35 47 -61l12 -39c96 -312 108 -340 108 -367c0 -35 -22 -52 -46 -52c-30 0 -35 22 -40 39z" />
    <glyph glyph-name="afii10078" unicode="&#x43c;" horiz-adv-x="569" 
d="M440 75l-21 141c-5 32 -16 77 -23 102c-97 -255 -99 -284 -137 -284c-21 0 -32 7 -48 55l-14 43c-18 55 -36 121 -49 171c-20 -65 -20 -110 -23 -235l-1 -36c-1 -32 -34 -45 -56 -45c-41 0 -38 45 -37 58l3 33c6 65 25 215 42 281l16 61c18 70 45 70 77 70
c16 0 31 -2 41 -38l11 -39c19 -66 11 -88 62 -228c43 119 53 149 66 184l18 50c12 34 17 67 53 67c12 0 32 -5 39 -29l9 -32c8 -29 14 -57 23 -96c20 -90 8 -25 29 -119l14 -64c10 -45 34 -141 -32 -141c-16 0 -52 6 -62 70z" />
    <glyph glyph-name="afii10079" unicode="&#x43d;" horiz-adv-x="484" 
d="M149 271l62 30c45 22 67 26 113 61c-4 141 6 182 48 182c37 0 43 -27 43 -42c0 -36 -7 -12 -6 -76c3 -137 12 -154 19 -229l6 -65c6 -63 21 -139 -44 -139c-15 0 -52 15 -55 78l-6 143c-1 30 4 38 -3 72c-46 -23 -49 -31 -170 -99c5 -42 22 -113 22 -169
c0 -43 -37 -51 -53 -51c-40 0 -44 33 -44 51v27c0 35 -4 16 -7 113c-21 -5 -28 -5 -30 -5c-8 0 -28 6 -28 30c0 33 12 42 46 56c-2 116 -1 147 -1 167c0 57 9 102 54 102c14 0 38 -10 38 -53c0 -31 -2 -52 -3 -78c-1 -16 -1 -41 -1 -106z" />
    <glyph glyph-name="afii10080" unicode="&#x43e;" horiz-adv-x="456" 
d="M250 437l-23 3c-60 8 17 58 54 58c58 0 149 -64 149 -224c0 -151 -92 -277 -203 -277c-102 0 -199 107 -199 227c0 99 71 236 122 236c21 0 41 -25 41 -38c0 -4 -4 -9 -11 -18l-14 -18c-34 -43 -44 -97 -44 -140c0 -95 64 -156 125 -156c64 0 109 81 109 184
c0 80 -36 154 -106 163z" />
    <glyph glyph-name="afii10081" unicode="&#x43f;" horiz-adv-x="471" 
d="M70 26v27c0 75 -16 73 -8 303c-21 -5 -28 -5 -30 -5c-8 0 -28 6 -28 30c0 35 17 47 55 58c0 37 27 47 41 47c29 0 34 -17 35 -27l80 26c108 35 136 41 158 41c28 0 43 -14 43 -42c0 -46 -7 -9 -6 -76c3 -144 11 -143 18 -216l5 -54c6 -63 21 -139 -44 -139
c-23 0 -53 23 -55 78l-4 119c-3 93 -1 194 1 248c-109 -32 -133 -34 -192 -62c-3 -229 28 -195 28 -356c0 -43 -38 -51 -53 -51c-40 0 -44 33 -44 51z" />
    <glyph glyph-name="afii10082" unicode="&#x440;" horiz-adv-x="574" 
d="M74 -129l-16 483c-3 92 -16 185 56 185c49 0 49 -39 49 -68c0 -62 -6 -87 -6 -204c47 84 151 234 258 234c57 0 131 -26 131 -131c0 -247 -230 -378 -312 -378c-11 0 -28 4 -28 25c0 16 10 36 26 45l57 32c137 77 156 190 156 255c0 60 -28 81 -65 52l-29 -23
c-64 -51 -156 -188 -193 -269c0 -88 11 -367 28 -430l8 -30c18 -68 -33 -113 -65 -113c-23 0 -51 17 -51 71c0 23 2 46 2 69c0 38 -3 91 -6 195z" />
    <glyph glyph-name="afii10083" unicode="&#x441;" horiz-adv-x="455" 
d="M474 114c0 -63 -129 -114 -224 -114c-110 0 -222 73 -222 217c0 160 168 269 251 269c46 0 101 -22 101 -50c0 -20 -22 -38 -43 -38c-6 0 -11 2 -12 7v6c-1 7 -13 13 -36 13c-57 0 -156 -85 -156 -181c0 -78 55 -141 144 -141c13 0 54 1 131 31c10 4 26 10 37 10
s29 -8 29 -29z" />
    <glyph glyph-name="afii10084" unicode="&#x442;" horiz-adv-x="646" 
d="M185 243l-31 -36c7 -133 12 -155 12 -176c0 -31 -21 -57 -54 -57c-45 0 -47 45 -48 76l-2 78c-1 39 -9 181 -13 230c-1 13 -2 25 0 38c5 28 27 38 53 38c40 0 47 -27 49 -55c2 -24 -1 -20 3 -58c22 23 126 121 167 121c36 0 38 -47 36 -87c41 37 124 105 168 105
c59 0 62 -51 63 -79c1 -32 0 -64 0 -96c-1 -55 -2 -58 -2 -78c0 -19 4 -90 14 -109l7 -13c14 -27 11 -85 -45 -85c-77 0 -71 123 -72 226l-1 69c0 22 5 64 -19 64c-19 0 -90 -65 -107 -89c5 -29 24 -189 24 -219c0 -44 -32 -67 -53 -67c-83 0 -56 173 -57 262v50
c0 10 0 20 -12 20c-15 0 -72 -64 -80 -73z" />
    <glyph glyph-name="afii10085" unicode="&#x443;" horiz-adv-x="350" 
d="M108 443l22 -68c15 -46 35 -86 70 -125c39 102 56 150 72 189l22 53c8 20 36 19 51 11c16 -8 12 -25 9 -35l-46 -174c-55 -210 -148 -438 -247 -622l-29 -54c-9 -17 -12 -29 -31 -29c-15 0 -32 8 -32 31c0 45 59 118 154 402l35 105c-56 65 -155 228 -155 297
c0 43 34 60 55 60c14 0 38 -5 50 -41z" />
    <glyph glyph-name="afii10086" unicode="&#x444;" horiz-adv-x="841" 
d="M345 418l-10 223c-1 17 -3 85 56 85c67 0 60 -76 53 -419c28 91 105 173 221 173c87 0 148 -59 148 -161c0 -204 -201 -327 -292 -327c-11 0 -28 4 -28 25c0 16 10 36 26 45l57 32c133 75 136 183 136 222c0 38 -24 77 -84 77c-81 0 -134 -107 -182 -250
c-2 -142 14 -393 27 -442l8 -30c18 -68 -33 -113 -65 -113c-23 0 -51 17 -51 71c0 23 2 46 2 69c0 44 -3 81 -6 173l-7 202c-45 -35 -113 -76 -196 -76c-108 0 -142 78 -142 155c0 139 176 307 329 266zM349 188v59c0 38 -19 88 -72 88c-60 0 -163 -76 -163 -171
c0 -43 25 -81 72 -81c35 0 115 26 163 105z" />
    <glyph glyph-name="afii10087" unicode="&#x445;" horiz-adv-x="437" 
d="M131 449l20 -36c17 -30 28 -51 54 -88c35 45 151 155 189 155c33 0 56 -35 28 -65l-163 -172c20 -27 45 -54 70 -75l44 -37c21 -18 31 -40 31 -59c0 -20 -13 -49 -56 -49s-72 37 -119 95l-32 39c-31 -42 -46 -72 -66 -112l-38 -77c-10 -19 -31 -24 -46 -12
c-24 20 -10 54 -4 72l24 68c17 50 33 91 68 146c-118 152 -125 191 -125 203c0 33 27 59 54 59c21 0 48 -20 67 -55z" />
    <glyph glyph-name="afii10088" unicode="&#x446;" horiz-adv-x="482" 
d="M404 450v-27c0 -101 8 -92 5 -278c21 5 28 5 30 5c38 0 35 -68 35 -115c0 -56 7 -111 -48 -111c-30 0 -27 28 -27 34c2 22 0 48 -7 111l-136 -53c-35 -14 -127 -41 -158 -41c-56 0 -42 53 -39 70c6 36 -4 183 -6 214l-9 124c-5 65 -18 119 38 119c20 0 53 -14 55 -78
l4 -119c3 -93 1 -194 -1 -248c109 32 133 34 192 62c-6 145 -9 192 -10 212c-5 76 -10 89 -10 115c0 50 32 55 48 55c40 0 44 -32 44 -51z" />
    <glyph glyph-name="afii10089" unicode="&#x447;" horiz-adv-x="465" 
d="M323 56l-1 22c-1 19 -3 41 -11 118c-34 -48 -79 -59 -107 -59c-142 0 -183 124 -183 310c0 16 -1 69 51 69c50 0 52 -49 54 -77c7 -108 15 -211 94 -211c51 0 80 63 85 73c-6 95 -10 110 -10 137c0 29 5 73 57 73c55 0 53 -40 56 -104c4 -86 1 -95 7 -186
c7 -105 14 -95 14 -148c0 -93 -34 -114 -57 -114c-43 0 -47 62 -49 97z" />
    <glyph glyph-name="afii10090" unicode="&#x448;" horiz-adv-x="639" 
d="M363 471l2 -35c3 -58 14 -136 8 -309c36 16 68 29 133 51c1 24 2 55 2 93c0 35 -4 113 -7 146c-4 47 -10 47 -10 70c0 7 1 47 46 47c73 0 60 -131 59 -229l-2 -160c-1 -40 -5 -94 -49 -94c-21 0 -37 11 -37 47c-28 -8 -95 -33 -132 -48c0 -37 -27 -47 -41 -47
c-29 0 -34 17 -35 27l-42 -14c-118 -39 -142 -41 -158 -41c-48 0 -46 38 -43 91l2 41c2 39 -5 173 -8 203l-5 54c-4 48 -22 138 38 138c23 0 53 -24 55 -78l4 -119c3 -93 1 -194 -1 -248c94 28 99 25 155 47c0 112 -9 197 -17 257c-10 76 -12 89 -12 102c0 43 38 51 53 51
c34 0 41 -23 42 -43z" />
    <glyph glyph-name="afii10091" unicode="&#x449;" horiz-adv-x="680" 
d="M363 451l2 -35c3 -58 14 -136 8 -309c46 16 91 32 133 47c1 26 2 61 2 97s-4 113 -7 146c-4 47 -10 48 -10 70c0 7 1 47 46 47c74 0 60 -131 59 -229l-1 -105c21 5 28 5 30 5c38 0 35 -68 35 -115c0 -56 7 -111 -48 -111c-30 0 -27 28 -27 34c2 26 -2 53 -7 122
c-86 -47 -103 -46 -202 -85c0 -37 -27 -47 -41 -47c-29 0 -34 17 -35 27l-42 -14c-118 -39 -142 -41 -158 -41c-48 0 -46 38 -43 91l2 41c2 39 -5 173 -8 203l-5 54c-4 48 -22 138 38 138c23 0 53 -24 55 -78l4 -119c3 -93 1 -194 -1 -248c94 28 99 25 155 47
c0 112 -9 197 -17 257c-10 76 -12 89 -12 102c0 43 38 51 53 51c34 0 41 -23 42 -43z" />
    <glyph glyph-name="afii10092" unicode="&#x44a;" horiz-adv-x="446" 
d="M157 448v-39c0 -16 3 -31 4 -47c2 -23 2 -46 2 -69c38 45 80 62 129 62c78 0 138 -46 138 -125c0 -126 -124 -225 -212 -225c-126 0 -130 132 -131 181l-2 85c-1 32 -6 72 -7 142c-46 -24 -59 -52 -85 -52c-19 0 -33 7 -33 28c0 41 134 112 155 112c12 0 42 -2 42 -53z
M179 142c3 -19 13 -65 54 -65c50 0 108 94 108 138c0 45 -42 64 -77 64c-42 0 -76 -51 -90 -97c1 -14 3 -27 5 -40z" />
    <glyph glyph-name="afii10093" unicode="&#x44b;" horiz-adv-x="566" 
d="M126 428v-39c0 -16 3 -31 4 -47c2 -23 2 -46 2 -69c34 52 69 81 138 81c89 0 128 -56 128 -116c0 -86 -96 -253 -211 -253c-126 0 -130 133 -131 181l-2 85c-3 123 -9 156 -9 173c0 49 23 57 39 57c38 0 42 -33 42 -53zM148 122c3 -17 13 -65 54 -65
c43 0 110 102 110 165c0 48 -41 59 -60 59c-25 0 -82 -11 -109 -119c1 -14 3 -27 5 -40zM523 238l-7 -160c-1 -27 -7 -94 -57 -94c-28 0 -36 17 -36 48c0 82 8 61 8 254c0 86 -14 74 -14 124c0 43 31 57 50 57c48 0 59 -46 59 -83c0 -10 2 -37 -3 -146z" />
    <glyph glyph-name="afii10094" unicode="&#x44c;" horiz-adv-x="407" 
d="M112 438v-39c0 -16 3 -31 4 -47c2 -23 2 -46 2 -69c38 45 80 62 129 62c78 0 138 -46 138 -125c0 -126 -124 -225 -212 -225c-126 0 -130 132 -131 181l-2 85c-3 123 -9 156 -9 173c0 49 23 57 39 57c38 0 42 -33 42 -53zM134 132c3 -19 13 -65 54 -65
c50 0 108 94 108 138c0 45 -42 64 -77 64c-42 0 -76 -51 -90 -97c1 -14 3 -27 5 -40z" />
    <glyph glyph-name="afii10095" unicode="&#x44d;" horiz-adv-x="451" 
d="M43 438c22 20 84 70 192 70c73 0 141 -46 174 -127c30 8 48 -4 48 -20c0 -17 -17 -36 -34 -45c15 -163 -138 -320 -274 -320c-74 0 -103 36 -103 64c0 29 22 29 32 29c12 0 22 -4 33 -6c10 -2 21 -4 31 -4c95 0 182 95 182 202c-39 -13 -244 -75 -268 -75
c-18 0 -26 11 -26 20c0 55 223 99 283 118c-21 55 -70 86 -137 86c-39 0 -63 -13 -89 -27c-16 -9 -27 -16 -39 -16c-22 0 -25 14 -25 21c0 12 11 22 20 30z" />
    <glyph glyph-name="afii10096" unicode="&#x44e;" horiz-adv-x="700" 
d="M154 271l125 59c8 36 40 110 75 110c17 0 38 -17 38 -30c0 -7 -4 -13 -7 -20l-10 -20c-65 -130 23 -275 120 -275c44 0 96 34 96 138s-52 208 -145 204l-23 -1c-13 -1 -14 5 -14 29c0 30 44 39 73 39c108 0 184 -134 184 -262c0 -126 -76 -244 -186 -244
c-96 0 -220 100 -211 253c-37 -23 -73 -44 -108 -64c10 -54 22 -157 22 -181c0 -43 -35 -51 -53 -51c-34 0 -40 28 -40 50v39c0 34 -6 85 -11 114c-21 -5 -28 -5 -30 -5c-8 0 -28 6 -28 30c0 36 16 45 51 58c-14 145 -15 172 -15 177c0 60 36 65 49 65c40 0 42 -56 43 -79
c2 -39 6 -62 5 -133z" />
    <glyph glyph-name="afii10097" unicode="&#x44f;" horiz-adv-x="444" 
d="M162 36l-15 -43c-8 -23 -23 -61 -60 -61c-19 0 -38 13 -38 47c0 44 47 137 99 189c-76 -3 -123 55 -123 123c0 118 140 257 308 220c11 6 30 13 43 13c60 0 37 -94 28 -156c-22 -157 13 -278 13 -318c0 -22 -4 -48 -46 -48c-27 0 -55 17 -55 44v52c0 35 -3 84 -6 122
c-79 -45 -128 -128 -148 -184zM309 310l6 128c-14 3 -31 5 -46 5c-72 0 -151 -61 -151 -141c0 -68 63 -71 88 -69c12 14 43 47 103 77z" />
    <glyph glyph-name="afii10052" unicode="&#x403;" horiz-adv-x="405" 
d="M529 815l-37 -16c-175 -76 -239 -105 -303 -163c-8 -113 -15 -276 -5 -401l7 -87c4 -47 25 -149 -69 -149c-47 0 -46 47 -45 71l4 161c8 314 13 262 12 381c-14 10 -47 47 -47 63c0 14 28 31 48 36c-2 59 25 70 47 70c19 0 43 -15 57 -31c67 33 139 63 237 97l55 19
c15 5 41 13 50 13c20 0 30 -15 30 -28c0 -8 -8 -22 -41 -36zM251 907l27 34c76 95 116 153 136 153c12 0 29 -27 29 -43c0 -23 -31 -45 -80 -91l-49 -46c-34 -32 -44 -73 -66 -73c-8 0 -19 11 -19 20s13 34 22 46z" />
    <glyph glyph-name="afii10100" unicode="&#x453;" horiz-adv-x="296" 
d="M411 514l-30 -9c-52 -16 -176 -64 -228 -86c19 -168 21 -259 21 -319c0 -59 8 -149 -40 -149c-82 0 -56 179 -62 329l-4 108l-15 -7c-30 -14 -52 1 -52 23c0 36 25 48 49 58l45 19c131 55 236 80 298 80c11 0 33 3 33 -20c0 -10 -5 -24 -15 -27zM141 589l27 34
c76 95 116 153 136 153c12 0 29 -27 29 -43c0 -23 -31 -45 -80 -91l-49 -46c-34 -32 -44 -73 -66 -73c-8 0 -19 11 -19 20s13 34 22 46z" />
    <glyph glyph-name="afii10061" unicode="&#x40c;" horiz-adv-x="584" 
d="M179 734l13 -272c155 179 155 206 187 250l40 56c27 38 84 32 84 -11c0 -74 -196 -301 -238 -344c218 -81 397 -297 397 -376c0 -36 -24 -46 -44 -46c-39 0 -54 42 -91 81l-65 69c-64 68 -130 118 -266 188c17 -229 25 -178 25 -245c0 -24 2 -98 -88 -98
c-59 0 -54 45 -60 492l-3 220c0 19 -2 87 54 87c17 0 53 -2 55 -51zM259 873l27 34c76 95 116 153 136 153c12 0 29 -27 29 -43c0 -23 -31 -45 -80 -91l-49 -46c-34 -32 -44 -73 -66 -73c-8 0 -19 11 -19 20s13 34 22 46z" />
    <glyph glyph-name="afii10109" unicode="&#x45c;" horiz-adv-x="489" 
d="M343 430l30 41c26 35 75 38 75 0c0 -62 -88 -164 -213 -216c151 8 244 -113 244 -217c0 -47 -35 -52 -49 -52c-34 0 -37 24 -40 38c-25 115 -132 180 -242 159c4 -27 16 -116 16 -139c0 -48 -34 -64 -59 -64c-60 0 -52 54 -52 110c0 53 -4 196 -7 249c-2 25 -4 49 -4 74
v6c0 55 19 63 41 63c21 0 45 1 49 -46c5 -58 -2 -8 7 -159c119 50 176 115 204 153zM204 563l27 34c76 95 116 153 136 153c12 0 29 -27 29 -43c0 -23 -31 -45 -80 -91l-49 -46c-34 -32 -44 -73 -66 -73c-8 0 -19 11 -19 20s13 34 22 46z" />
    <glyph glyph-name="afii10062" unicode="&#x40e;" horiz-adv-x="446" 
d="M130 706l46 -76c36 -59 42 -85 94 -146c9 27 17 54 25 81c13 44 23 88 37 132l28 87c7 21 13 46 43 46c27 0 39 -11 39 -40c0 -14 -5 -37 -69 -286l-31 -120c7 -8 17 -28 17 -40s-14 -26 -28 -32c-24 -41 -61 -109 -112 -274l-42 -135c-9 -29 -18 -57 -51 -69
c-30 -11 -33 20 -21 57l52 165c9 28 21 74 71 286l-54 80c-137 203 -160 246 -160 266s15 59 60 59c30 0 41 -16 56 -41zM374 1000c0 -42 -108 -122 -173 -122c-102 0 -130 71 -130 95c0 22 15 35 27 35c15 0 24 -26 47 -37c17 -8 45 -14 63 -14c34 0 71 14 105 39
c20 15 34 26 44 26c8 0 17 -10 17 -22z" />
    <glyph glyph-name="afii10110" unicode="&#x45e;" horiz-adv-x="350" 
d="M108 443l22 -68c15 -46 35 -86 70 -125c39 102 56 150 72 189l22 53c8 20 36 19 51 11c16 -8 12 -25 9 -35l-46 -174c-55 -210 -148 -438 -247 -622l-29 -54c-9 -17 -12 -29 -31 -29c-15 0 -32 8 -32 31c0 45 59 118 154 402l35 105c-56 65 -155 228 -155 297
c0 43 34 60 55 60c14 0 38 -5 50 -41zM326 680c0 -42 -108 -122 -173 -122c-102 0 -130 71 -130 95c0 22 15 35 27 35c15 0 24 -26 47 -37c17 -8 45 -14 63 -14c34 0 71 14 105 39c20 15 34 26 44 26c8 0 17 -10 17 -22z" />
    <glyph glyph-name="afii10056" unicode="&#x407;" horiz-adv-x="419" 
d="M90 618l2 46c4 81 50 91 65 91c26 0 60 -15 60 -60c0 -92 -48 -483 -19 -606l4 -17c15 -63 -29 -91 -66 -91c-62 0 -68 70 -68 151c0 113 9 193 22 486zM180 913c0 38 -2 100 41 100c15 0 41 -12 41 -60c0 -40 -27 -95 -54 -95c-28 0 -28 29 -28 55zM119 954
c0 -74 -24 -91 -42 -91c-34 0 -36 35 -36 66c0 27 14 63 41 65h3c10 -1 34 -16 34 -40z" />
    <glyph glyph-name="afii10104" unicode="&#x457;" horiz-adv-x="186" 
d="M40 226l12 159c2 30 11 92 60 92c32 0 35 -26 35 -49c0 -57 -17 -157 -17 -253c0 -116 10 -7 10 -125c0 -43 -35 -55 -52 -55c-55 0 -56 60 -56 85c0 55 4 99 8 146zM122 599c0 38 -2 100 41 100c15 0 41 -12 41 -60c0 -40 -27 -95 -54 -95c-28 0 -28 29 -28 55zM61 640
c0 -74 -24 -91 -42 -91c-34 0 -36 35 -36 66c0 27 14 63 41 65h3c10 -1 34 -16 34 -40z" />
  </font>
</defs>
</svg>
